<svg data-v-423bf9ae="" xmlns="http://www.w3.org/2000/svg" viewBox="0 0 405 90" class="iconLeftSlogan"><!----><!----><!----><g data-v-423bf9ae="" id="58301f3b-83a4-4c1f-82cb-4b9719cb4646" fill="#ffffff" transform="matrix(4.10958893372029,0,0,4.10958893372029,81.35262984468011,-2.7534237601090865)"><path d="M13.02 10.02L13.02 10.02L13.02 10.02Q12.98 10.42 12.11 11.42L12.11 11.42L12.11 11.42Q11.19 12.52 10.67 12.52L10.67 12.52L10.67 12.52Q10.54 12.52 10.26 12.23L10.26 12.23L10.26 12.23Q9.97 11.94 9.93 11.93L9.93 11.93L9.93 11.93Q9.46 11.77 8.41 11.41L8.41 11.41L8.41 11.41Q8.40 11.09 8.46 11.00L8.46 11.00L8.46 11.00Q9.00 10.28 9.55 9.53L9.55 9.53L9.55 9.53Q9.65 9.32 9.65 8.44L9.65 8.44L9.65 8.44Q9.65 7.35 8.94 6.66L8.94 6.66L8.94 6.66Q8.23 5.96 7.10 5.96L7.10 5.96L7.10 5.96Q6.50 5.96 6.13 6.24L6.13 6.24L6.13 6.24Q5.08 7.04 5.07 7.06L5.07 7.06L5.07 7.06Q5.18 7.28 5.18 7.35L5.18 7.35L5.18 9.51L5.18 9.51Q5.40 9.80 6.09 10.36L6.09 10.36L6.09 10.36Q6.05 10.75 5.18 11.77L5.18 11.77L5.18 11.77Q4.26 12.85 3.75 12.85L3.75 12.85L3.75 12.85Q3.61 12.85 3.18 12.43L3.18 12.43L3.18 12.43Q2.95 12.18 2.73 11.94L2.73 11.94L2.73 9.93L2.73 9.93Q2.73 9.88 2.65 9.58L2.65 9.58L2.65 9.58Q2.58 9.27 2.58 9.23L2.58 9.23L2.62 5.68L2.62 5.68Q2.73 4.66 2.73 4.83L2.73 4.83L2.73 4.83Q2.73 4.24 2.53 4.07L2.53 4.07L2.53 4.07Q2.03 3.71 1.53 3.36L1.53 3.36L1.53 3.36Q1.29 3.51 1.04 3.68L1.04 3.68L1.04 3.68Q0.71 3.89 0.48 3.86L0.48 3.86L0.48 3.86Q0.41 3.46 1.81 2.06L1.81 2.06L1.81 2.06Q3.21 0.67 3.64 0.67L3.64 0.67L3.64 0.67Q3.71 0.67 4.38 1.18L4.38 1.18L4.38 1.18Q5.04 1.69 5.18 1.85L5.18 1.85L5.18 3.26L5.18 3.26Q5.18 3.23 5.07 3.68L5.07 3.68L5.10 6.12L5.10 6.12Q6.43 4.79 7.14 4.28L7.14 4.28L7.14 4.28Q8.26 3.50 9.35 3.50L9.35 3.50L9.35 3.50Q10.63 3.50 11.37 4.21L11.37 4.21L11.37 4.21Q12.11 4.91 12.11 6.26L12.11 6.26L12.11 6.26Q12.11 7.06 12.01 7.52L12.01 7.52L12.01 7.52Q11.82 8.40 11.20 9.09L11.20 9.09L11.20 9.09Q11.98 9.31 12.40 9.51L12.40 9.51L12.40 9.51Q12.49 9.65 12.67 9.86L12.67 9.86L12.67 9.86Q12.80 9.91 13.02 10.02ZM22.23 10.44L22.23 10.44L22.23 10.44Q22.12 10.77 21.31 11.68L21.31 11.68L21.31 11.68Q20.43 12.68 20.02 12.68L20.02 12.68L20.02 12.68Q19.96 12.68 19.35 12.11L19.35 12.11L19.35 12.11Q18.69 11.51 18.66 11.28L18.66 11.28L18.66 11.28Q18.30 11.76 17.39 12.22L17.39 12.22L17.39 12.22Q16.48 12.68 15.96 12.68L15.96 12.68L15.96 12.68Q15.08 12.68 14.48 11.89L14.48 11.89L14.48 11.89Q13.96 11.20 13.96 10.46L13.96 10.46L13.96 10.46Q13.96 8.64 15.60 6.72L15.60 6.72L15.60 6.72Q17.05 5.01 18.35 4.65L18.35 4.65L18.35 4.65Q18.40 4.63 18.55 4.55L18.55 4.55L18.55 4.55Q18.70 4.47 18.76 4.47L18.76 4.47L18.76 4.47Q18.75 4.47 19.16 4.75L19.16 4.75L19.16 4.75Q19.57 5.04 20.06 5.04L20.06 5.04L20.06 5.04Q20.58 5.04 20.80 4.93L20.80 4.93L20.80 4.93Q20.99 4.83 21.22 4.86L21.22 4.86L21.22 4.86Q21.27 5.19 20.58 5.85L20.58 5.85L20.58 7.04L20.58 7.04Q20.58 7.10 20.62 7.24L20.62 7.24L20.62 7.24Q20.66 7.38 20.66 7.42L20.66 7.42L20.66 9.59L20.66 9.59Q21.03 9.94 21.73 10.58L21.73 10.58L21.73 10.58Q22.11 10.42 22.23 10.44ZM18.69 10.39L18.69 10.39L18.69 9.37L18.69 9.37Q18.69 9.31 18.65 9.17L18.65 9.17L18.65 9.17Q18.61 9.03 18.61 8.99L18.61 8.99L18.61 7.07L18.61 7.07Q18.58 7.06 18.05 7.06L18.05 7.06L18.05 7.06Q17.79 7.06 17.42 6.79L17.42 6.79L17.42 6.79Q17.15 6.59 16.88 6.40L16.88 6.40L16.88 6.40Q16.45 6.62 16.17 7.42L16.17 7.42L16.17 7.42Q15.93 8.09 15.93 8.67L15.93 8.67L15.93 8.67Q15.93 9.31 16.41 9.95L16.41 9.95L16.41 9.95Q16.95 10.71 17.72 10.71L17.72 10.71L17.72 10.71Q18.03 10.71 18.69 10.39ZM26.43 1.85L26.64 1.85L26.64 1.85Q26.40 2.52 25.54 3.30L25.54 3.30L25.54 3.30Q24.68 4.09 24.19 4.03L24.19 4.03L24.19 4.03Q23.97 3.74 23.53 3.25L23.53 3.25L23.53 3.25Q23.11 3.57 22.95 3.57L22.95 3.57L22.95 3.57Q22.89 3.51 22.89 3.43L22.89 3.43L22.89 3.43Q22.89 3.02 23.91 2.10L23.91 2.10L23.91 2.10Q24.92 1.18 25.24 1.18L25.24 1.18L25.24 1.18Q25.38 1.18 25.70 1.53L25.70 1.53L25.70 1.53Q25.91 1.76 26.12 2.00L26.12 2.00L26.12 2.00Q26.22 1.96 26.43 1.85L26.43 1.85ZM26.68 9.34L26.68 9.34L26.68 9.34Q26.68 10.02 25.75 11.32L25.75 11.32L25.75 11.32Q24.81 12.61 24.28 12.60L24.28 12.60L24.11 12.60L24.11 12.60Q24.21 12.31 24.49 11.80L24.49 11.80L24.49 11.80Q24.70 11.44 24.70 11.14L24.70 11.14L24.70 11.14Q24.70 11.10 24.65 10.91L24.65 10.91L24.65 10.91Q24.61 10.72 24.61 10.67L24.61 10.67L24.61 8.53L24.61 8.53Q24.61 8.05 24.47 7.57L24.47 7.57L24.47 7.57Q24.28 6.93 23.91 6.93L23.91 6.93L23.91 6.93Q23.87 6.93 23.71 7.05L23.71 7.05L23.71 7.05Q23.55 7.17 23.49 7.17L23.49 7.17L23.24 7.17L23.24 7.17Q23.42 6.52 24.44 5.63L24.44 5.63L24.44 5.63Q25.40 4.79 25.73 4.82L25.73 4.82L25.73 4.82Q26.00 4.96 26.36 5.29L26.36 5.29L26.36 5.29Q26.61 5.80 26.61 6.64L26.61 6.64L26.61 8.76L26.61 8.76Q26.61 8.79 26.65 9.04L26.65 9.04L26.65 9.04Q26.68 9.28 26.68 9.34ZM35.67 4.54L35.90 4.54L35.90 4.54Q35.60 5.38 34.62 6.20L34.62 6.20L34.62 6.20Q33.64 7.03 32.83 7.03L32.83 7.03L32.83 7.03Q32.24 7.03 31.93 6.90L31.93 6.90L31.93 6.90Q31.56 6.73 31.28 6.27L31.28 6.27L31.28 6.27Q31.02 6.44 30.81 6.66L30.81 6.66L30.81 10.11L30.81 10.11Q30.90 10.16 31.18 10.54L31.18 10.54L31.18 10.54Q31.46 10.91 31.46 10.92L31.46 10.92L31.46 10.92Q31.46 11.38 30.53 12.17L30.53 12.17L30.53 12.17Q29.72 12.85 29.47 12.91L29.47 12.91L29.47 12.91Q29.08 12.38 28.76 12.07L28.76 12.07L28.76 8.60L28.76 8.60Q28.76 8.54 28.72 8.48L28.72 8.48L28.72 8.48Q28.69 8.43 28.69 8.39L28.69 8.39L28.69 6.90L28.69 6.90Q27.90 6.23 27.86 6.23L27.86 6.23L27.86 6.23Q27.83 6.23 27.29 6.55L27.29 6.55L27.09 6.50L27.09 6.50Q27.19 6.16 28.07 5.19L28.07 5.19L28.07 5.19Q29.08 4.09 29.61 4.09L29.61 4.09L29.61 4.09Q29.71 4.09 30.14 4.44L30.14 4.44L30.14 4.44Q30.42 4.68 30.72 4.90L30.72 4.90L30.72 4.90Q30.72 5.21 30.76 5.87L30.76 5.87L30.76 5.87Q31.91 4.68 33.14 4.00L33.14 4.00L33.14 4.00Q33.40 4.58 33.78 4.80L33.78 4.80L33.78 4.80Q34.10 4.97 34.69 4.97L34.69 4.97L34.69 4.97Q34.92 4.97 35.13 4.87L35.13 4.87L35.13 4.87Q35.39 4.70 35.67 4.54L35.67 4.54ZM49.50 5.73L49.50 5.73L49.50 5.73Q49.50 7.24 47.81 9.46L47.81 9.46L47.81 9.46Q46.07 11.73 44.28 12.42L44.28 12.42L44.28 12.42Q43.61 11.91 42.35 10.78L42.35 10.78L42.35 10.78Q41.87 11.30 41.15 11.83L41.15 11.83L41.15 11.83Q40.18 12.54 39.65 12.54L39.65 12.54L39.65 12.54Q38.53 12.54 37.63 11.79L37.63 11.79L37.63 11.79Q36.65 10.95 36.65 9.70L36.65 9.70L36.65 9.70Q36.65 8.88 37.18 7.75L37.18 7.75L37.18 7.75Q37.72 6.62 38.33 6.15L38.33 6.15L38.33 6.15Q38.00 6.09 37.37 6.12L37.37 6.12L37.37 6.12Q37.27 6.02 37.27 5.99L37.27 5.99L37.27 5.99Q37.27 5.59 38.19 4.68L38.19 4.68L38.19 4.68Q39.12 3.78 39.42 3.78L39.42 3.78L39.42 3.78Q39.45 3.78 39.55 3.88L39.55 3.88L40.94 3.88L40.94 3.88Q40.89 3.88 41.27 4.02L41.27 4.02L41.27 4.02Q40.64 5.08 39.96 5.70L39.96 5.70L39.96 5.70Q39.21 6.36 39.19 6.40L39.19 6.40L39.19 6.40Q38.95 6.76 38.95 7.69L38.95 7.69L38.95 7.69Q38.95 8.82 39.71 9.54L39.71 9.54L39.71 9.54Q40.47 10.26 41.68 10.26L41.68 10.26L41.68 10.26Q41.78 10.26 41.96 10.18L41.96 10.18L41.96 10.18Q42.15 10.11 42.15 10.04L42.15 10.04L42.11 6.37L42.11 6.37Q42.07 6.16 41.73 6.02L41.73 6.02L41.73 6.02Q41.23 5.78 41.19 5.75L41.19 5.75L41.19 5.75Q41.24 5.39 42 4.49L42 4.49L42 4.49Q42.83 3.53 43.34 3.53L43.34 3.53L43.34 3.53Q43.41 3.53 43.88 3.81L43.88 3.81L43.88 3.81Q44.35 4.10 44.41 4.16L44.41 4.16L44.41 8.04L44.41 8.04Q44.41 8.39 45.21 9.17L45.21 9.17L45.21 9.17Q46.00 9.95 46.31 9.95L46.31 9.95L46.31 9.95Q46.68 9.95 46.98 8.86L46.98 8.86L46.98 8.86Q47.22 8.01 47.22 7.70L47.22 7.70L47.22 7.70Q47.22 5.56 45.33 5.46L45.33 5.46L45.33 5.46Q45.51 4.79 46.33 4.02L46.33 4.02L46.33 4.02Q47.15 3.26 47.77 3.26L47.77 3.26L47.77 3.26Q48.66 3.26 49.14 4.21L49.14 4.21L49.14 4.21Q49.50 4.93 49.50 5.73ZM59.02 10.44L59.02 10.44L59.02 10.44Q58.91 10.77 58.10 11.68L58.10 11.68L58.10 11.68Q57.22 12.68 56.81 12.68L56.81 12.68L56.81 12.68Q56.76 12.68 56.14 12.11L56.14 12.11L56.14 12.11Q55.48 11.51 55.45 11.28L55.45 11.28L55.45 11.28Q55.09 11.76 54.18 12.22L54.18 12.22L54.18 12.22Q53.27 12.68 52.75 12.68L52.75 12.68L52.75 12.68Q51.87 12.68 51.27 11.89L51.27 11.89L51.27 11.89Q50.75 11.20 50.75 10.46L50.75 10.46L50.75 10.46Q50.75 8.64 52.39 6.72L52.39 6.72L52.39 6.72Q53.84 5.01 55.15 4.65L55.15 4.65L55.15 4.65Q55.19 4.63 55.34 4.55L55.34 4.55L55.34 4.55Q55.50 4.47 55.55 4.47L55.55 4.47L55.55 4.47Q55.54 4.47 55.95 4.75L55.95 4.75L55.95 4.75Q56.36 5.04 56.85 5.04L56.85 5.04L56.85 5.04Q57.37 5.04 57.60 4.93L57.60 4.93L57.60 4.93Q57.78 4.83 58.02 4.86L58.02 4.86L58.02 4.86Q58.06 5.19 57.37 5.85L57.37 5.85L57.37 7.04L57.37 7.04Q57.37 7.10 57.41 7.24L57.41 7.24L57.41 7.24Q57.46 7.38 57.46 7.42L57.46 7.42L57.46 9.59L57.46 9.59Q57.82 9.94 58.52 10.58L58.52 10.58L58.52 10.58Q58.90 10.42 59.02 10.44ZM55.48 10.39L55.48 10.39L55.48 9.37L55.48 9.37Q55.48 9.31 55.44 9.17L55.44 9.17L55.44 9.17Q55.40 9.03 55.40 8.99L55.40 8.99L55.40 7.07L55.40 7.07Q55.37 7.06 54.84 7.06L54.84 7.06L54.84 7.06Q54.59 7.06 54.21 6.79L54.21 6.79L54.21 6.79Q53.94 6.59 53.68 6.40L53.68 6.40L53.68 6.40Q53.24 6.62 52.96 7.42L52.96 7.42L52.96 7.42Q52.72 8.09 52.72 8.67L52.72 8.67L52.72 8.67Q52.72 9.31 53.20 9.95L53.20 9.95L53.20 9.95Q53.75 10.71 54.52 10.71L54.52 10.71L54.52 10.71Q54.82 10.71 55.48 10.39ZM70.25 10.21L70.25 10.21L70.25 10.21Q70.25 11.24 69.97 11.69L69.97 11.69L69.97 11.69Q69.27 12.77 68.10 13.89L68.10 13.89L68.10 13.89Q66.64 15.27 65.76 15.27L65.76 15.27L65.76 15.27Q65.70 15.27 63.92 14.86L63.92 14.86L63.92 14.86Q62.13 14.45 61.35 14.45L61.35 14.45L61.35 14.45Q60.58 14.45 60.47 14.59L60.47 14.59L60.47 14.59Q60.31 14.81 59.88 14.90L59.88 14.90L59.88 14.90Q59.84 14.85 59.84 14.77L59.84 14.77L59.84 14.77Q59.84 14.34 60.94 13.43L60.94 13.43L60.94 13.43Q62.01 12.56 62.38 12.53L62.38 12.53L62.38 12.53Q62.59 12.52 63.08 12.52L63.08 12.52L63.08 12.52Q63.95 12.52 65.69 12.94L65.69 12.94L65.69 12.94Q67.42 13.36 67.52 13.36L67.52 13.36L67.52 13.36Q68.33 13.36 68.33 11.94L68.33 11.94L68.33 11.94Q68.33 11.35 68.05 10.77L68.05 10.77L68.05 10.77Q67.65 9.91 66.89 9.91L66.89 9.91L66.89 9.91Q66.57 9.91 66.25 10.03L66.25 10.03L66.25 10.03Q65.93 10.15 65.91 10.15L65.91 10.15L65.91 10.15Q65.87 10.15 65.85 10.13L65.85 10.13L65.85 10.13Q65.83 10.11 65.79 10.11L65.79 10.11L65.79 10.11Q65.79 10.11 65.31 10.49L65.31 10.49L65.31 10.49Q64.75 10.93 64.20 11.20L64.20 11.20L64.20 11.20Q63.42 11.58 62.69 11.58L62.69 11.58L62.69 11.58Q60.26 11.58 60.26 9.23L60.26 9.23L60.26 9.23Q60.26 8.48 60.65 7.69L60.65 7.69L60.65 7.69Q60.91 7.14 61.68 6.01L61.68 6.01L61.68 6.01Q61.67 5.99 60.56 5.99L60.56 5.99L60.56 5.99Q60.52 5.94 60.52 5.87L60.52 5.87L60.52 5.87Q60.52 5.47 61.36 4.76L61.36 4.76L61.36 4.76Q62.09 4.13 62.34 4.07L62.34 4.07L64.19 4.12L64.19 4.12Q63.84 4.68 62.75 5.91L62.75 5.91L62.75 5.91Q62.17 6.55 62.17 7.42L62.17 7.42L62.17 7.42Q62.17 9.66 64.43 9.66L64.43 9.66L64.43 9.66Q64.90 9.66 65.76 9.28L65.76 9.28L65.76 6.40L65.76 6.40Q65.76 6.37 65.72 6.20L65.72 6.20L65.72 6.20Q65.69 6.03 65.69 5.95L65.69 5.95L65.69 5.95Q65.48 5.88 64.93 5.57L64.93 5.57L64.93 5.57Q64.96 5.29 65.65 4.48L65.65 4.48L65.65 4.48Q66.37 3.61 66.78 3.61L66.78 3.61L66.78 3.61Q66.77 3.61 67.59 4.12L67.59 4.12L67.59 4.12Q67.65 4.68 67.65 5.43L67.65 5.43L67.68 8.11L67.68 8.11Q68.63 7.99 68.63 7.99L68.63 7.99L68.63 7.99Q69.48 7.99 69.93 8.86L69.93 8.86L69.93 8.86Q70.25 9.49 70.25 10.21ZM78.55 4.40L78.55 4.40L78.55 4.40Q77.49 6.72 75.07 6.72L75.07 6.72L75.07 6.72Q74.82 6.72 73.51 6.45L73.51 6.45L73.51 6.45Q73.72 7.01 74.86 7.25L74.86 7.25L74.86 7.25Q76.55 7.63 76.78 7.73L76.78 7.73L76.78 7.73Q77.76 8.16 77.76 9.23L77.76 9.23L77.76 9.23Q77.76 9.87 76.26 11.23L76.26 11.23L76.26 11.23Q74.86 12.50 74.56 12.50L74.56 12.50L74.56 12.50Q74.62 12.50 73.71 12.14L73.71 12.14L73.71 12.14Q72.80 11.79 72.11 11.79L72.11 11.79L72.11 11.79Q71.60 11.79 70.95 11.94L70.95 11.94L70.95 11.94Q70.63 12.03 70.31 12.11L70.31 12.11L70.31 12.11Q71.05 10.77 71.99 10.25L71.99 10.25L71.99 10.25Q72.72 9.86 73.86 9.86L73.86 9.86L73.86 9.86Q74.17 9.86 74.72 10.00L74.72 10.00L74.72 10.00Q75.36 10.15 75.59 10.18L75.59 10.18L75.59 10.18Q75.01 9.55 73.82 9.30L73.82 9.30L73.82 9.30Q72.25 8.97 72.07 8.89L72.07 8.89L72.07 8.89Q71.29 8.53 71.29 7.46L71.29 7.46L71.29 7.46Q71.29 6.87 72.48 5.45L72.48 5.45L72.48 5.45Q73.68 4.03 74.31 4.03L74.31 4.03L74.31 4.03Q74.28 4.03 75.14 4.41L75.14 4.41L75.14 4.41Q76.01 4.79 76.83 4.79L76.83 4.79L76.83 4.79Q77.31 4.79 77.77 4.63L77.77 4.63L77.77 4.63Q78.37 4.42 78.55 4.40Z"></path></g><!----><g data-v-423bf9ae="" id="04594596-8e0a-4d43-a42b-db1e4bc46942" transform="matrix(1.0017468715153963,0,0,1.0017468715153963,-17.687906894969558,-5.008871083472037)" stroke="none" fill="#4B2154"><path d="M45.098 92.882h-.004l.002-3.772h.002c2.189 0 3.46-2.796 4.143-5.142 2.6-8.951.309-20.39-1.213-22.246a2.577 2.577 0 0 0-.162.181c-4.817 5.795-11.067 9.42-15.548 9.024-1.933-.172-3.477-1.109-4.346-2.64-1.096-1.93-1.66-4.723-2.205-7.426-.383-1.903-1.279-6.359-2.191-6.608-1.649-.45-3.426-1.958-4.423-3.752-.728-1.309-.933-2.604-.595-3.746.381-1.281 1.634-3.572 3.501-6.922.834-1.496 1.623-2.91 2.111-3.891 1.169-2.35.912-5.761.388-6.76-1.287-2.447-1.587-13.249.852-16.065l2.85 2.469-1.425-1.234 1.427 1.232c-1.096 1.346-1.183 10.16-.363 11.848 1.145 2.18 1.282 6.903-.353 10.19-.528 1.061-1.336 2.511-2.192 4.046-1.219 2.187-2.889 5.182-3.179 6.16-.13.581 1.265 2.477 2.397 2.787 3.155.862 4 5.059 4.895 9.502.486 2.409.988 4.902 1.785 6.307.161.28.479.665 1.401.746 2.68.248 7.905-2.373 12.314-7.679 1.911-2.3 3.816-1.702 4.543-1.337 4.718 2.354 5.619 17.396 3.687 25.598-1.782 7.543-5.387 9.128-8.099 9.13"></path><path d="M79.296 22.369c3.519 7.49 2.099 21.081 1.579 35.372-.312 8.574-.493 17.748-.722 24.314-.116 3.34 1.06 6.602 1.189 8.771.747 12.452-27.174-6.643-29.374-15.44-2.2-8.802-.968-20.73-2.38-26.231-1.415-5.5 6.755-27.342 6.755-27.342l22.953.556z"></path><path d="M76.756 17.517C66.699 3.27 53.359 3.217 44.349 7.722c0 0-18.922.514-20.217 5.448-3.424 13.047-.524 33.892 37.538 39.757l13.62 1.257s11.522-22.42 1.466-36.667zm-34.571 8.832s-4.214-10.304-4.221-14.754c0 0-2.783 1.381-4.834 4.622 0 0-.453-1.955-.166-3.363 0 0-4.535.572-6.298 2.402 0 0 .255-2.037 2.691-3.237 2.438-1.2 10.04-3.201 12.907-2.877 2.239.252-1.312 10.989-.079 17.207zM53.703 8.786s2.584 2.033 4.606 7.676c0 0-5.055-5.479-8.483-6.36l-3.318-.567s7.12-4.106 11.199-2.767c1.326.435 11.629 4.782 14.212 13.719 0 0-11.299-10.644-18.216-11.701z"></path></g><!----><g data-v-423bf9ae="" id="7af8d5dc-63b5-4d94-af7a-96667707e04b" fill="#ffffff" transform="matrix(0.48257090497892247,0,0,0.48257090497892247,82.54906931787394,57.68848584424916)"><path d="M7.28 9.34L7.28 9.34L7.28 9.34Q7.73 9.34 7.99 9.59L7.99 9.59L7.99 9.59Q8.25 9.84 8.25 10.29L8.25 10.29L8.25 10.29Q8.25 10.40 8.23 10.52L8.23 10.52L8.23 10.52Q8.22 10.64 8.18 10.72L8.18 10.72L8.18 10.72Q7.99 10.70 7.77 10.68L7.77 10.68L7.77 10.68Q7.55 10.65 7.24 10.65L7.24 10.65L7.24 10.65Q6.61 10.65 5.98 10.77L5.98 10.77L5.98 10.77Q5.35 10.88 4.77 10.95L4.77 10.95L4.77 10.95Q4.14 12.43 3.74 13.73L3.74 13.73L3.74 13.73Q3.33 15.04 3.11 16.31L3.11 16.31L3.11 16.31Q2.63 16.20 2.27 15.90L2.27 15.90L2.27 15.90Q1.90 15.61 1.58 15.08L1.58 15.08L1.58 15.08Q1.68 14.85 1.82 14.54L1.82 14.54L1.82 14.54Q1.96 14.22 2.16 13.74L2.16 13.74L2.16 13.74Q2.35 13.26 2.63 12.56L2.63 12.56L2.63 12.56Q2.90 11.87 3.28 10.91L3.28 10.91L3.28 10.91Q2.69 10.71 2.51 10.22L2.51 10.22L2.51 10.22Q2.58 10.15 2.90 10.06L2.90 10.06L2.90 10.06Q3.22 9.97 3.68 9.86L3.68 9.86L3.68 9.86Q3.89 9.31 4.05 8.88L4.05 8.88L4.05 8.88Q4.20 8.46 4.33 8.07L4.33 8.07L4.33 8.07Q4.45 7.69 4.56 7.32L4.56 7.32L4.56 7.32Q4.66 6.94 4.75 6.52L4.75 6.52L4.68 6.52L4.68 6.52Q4.14 6.52 3.81 6.27L3.81 6.27L3.81 6.27Q3.49 6.02 3.49 5.61L3.49 5.61L3.49 5.61Q3.49 5.50 3.52 5.35L3.52 5.35L3.52 5.35Q3.56 5.19 3.61 5.08L3.61 5.08L3.61 5.08Q3.88 5.12 4.14 5.14L4.14 5.14L4.14 5.14Q4.40 5.15 4.82 5.15L4.82 5.15L4.82 5.15Q5.70 5.15 6.47 5.10L6.47 5.10L6.47 5.10Q7.24 5.05 7.86 5.00L7.86 5.00L7.86 5.00Q8.48 4.94 8.93 4.89L8.93 4.89L8.93 4.89Q9.38 4.84 9.62 4.84L9.62 4.84L9.62 4.84Q9.94 4.84 10.19 5.18L10.19 5.18L10.19 5.18Q10.44 5.52 10.58 6.13L10.58 6.13L10.58 6.13Q10.14 6.09 9.86 6.08L9.86 6.08L9.86 6.08Q9.59 6.06 9.38 6.06L9.38 6.06L9.38 6.06Q8.67 6.06 8.07 6.13L8.07 6.13L8.07 6.13Q7.48 6.19 6.94 6.27L6.94 6.27L6.94 6.27Q6.86 6.40 6.75 6.59L6.75 6.59L6.75 6.59Q6.65 6.79 6.48 7.15L6.48 7.15L6.48 7.15Q6.31 7.50 6.05 8.08L6.05 8.08L6.05 8.08Q5.80 8.65 5.40 9.53L5.40 9.53L5.40 9.53Q5.95 9.45 6.45 9.39L6.45 9.39L6.45 9.39Q6.94 9.34 7.28 9.34ZM22.58 4.98L22.58 4.98L22.58 4.98Q22.85 5.10 23.13 5.27L23.13 5.27L23.13 5.27Q23.41 5.45 23.65 5.63L23.65 5.63L23.65 5.63Q23.88 5.81 24.05 5.98L24.05 5.98L24.05 5.98Q24.21 6.16 24.22 6.27L24.22 6.27L24.22 6.27Q23.98 6.22 23.74 6.20L23.74 6.20L23.74 6.20Q23.51 6.17 23.31 6.17L23.31 6.17L23.31 6.17Q22.68 6.17 22.06 6.48L22.06 6.48L22.06 6.48Q21.43 6.79 20.87 7.32L20.87 7.32L20.87 7.32Q20.31 7.85 19.84 8.57L19.84 8.57L19.84 8.57Q19.36 9.28 19.02 10.09L19.02 10.09L19.02 10.09Q18.68 10.91 18.48 11.77L18.48 11.77L18.48 11.77Q18.28 12.64 18.28 13.48L18.28 13.48L18.28 13.48Q18.28 14.57 18.65 15.11L18.65 15.11L18.65 15.11Q19.01 15.64 19.71 15.64L19.71 15.64L19.71 15.64Q20.05 15.64 20.44 15.51L20.44 15.51L20.44 15.51Q20.83 15.37 21.24 15.13L21.24 15.13L21.24 15.13Q21.64 14.90 22.04 14.56L22.04 14.56L22.04 14.56Q22.43 14.22 22.76 13.82L22.76 13.82L22.76 13.82Q23.25 13.23 23.65 12.48L23.65 12.48L23.65 12.48Q24.04 11.73 24.31 10.89L24.31 10.89L24.31 10.89Q24.58 10.05 24.73 9.16L24.73 9.16L24.73 9.16Q24.88 8.27 24.88 7.42L24.88 7.42L24.88 7.42Q24.88 7.08 24.86 6.85L24.86 6.85L24.86 6.85Q24.85 6.62 24.83 6.46L24.83 6.46L24.83 6.46Q24.81 6.30 24.79 6.20L24.79 6.20L24.79 6.20Q24.78 6.10 24.77 6.03L24.77 6.03L24.77 6.03Q24.93 6.12 25.14 6.24L25.14 6.24L25.14 6.24Q25.34 6.36 25.52 6.59L25.52 6.59L25.52 6.59Q25.69 6.82 25.81 7.20L25.81 7.20L25.81 7.20Q25.93 7.57 25.93 8.18L25.93 8.18L25.93 8.18Q25.93 9.16 25.70 10.10L25.70 10.10L25.70 10.10Q25.47 11.05 25.05 11.90L25.05 11.90L25.05 11.90Q24.64 12.75 24.08 13.50L24.08 13.50L24.08 13.50Q23.52 14.24 22.88 14.80L22.88 14.80L22.88 14.80Q22.04 15.54 21.08 15.95L21.08 15.95L21.08 15.95Q20.13 16.35 19.25 16.35L19.25 16.35L19.25 16.35Q17.96 16.35 17.28 15.53L17.28 15.53L17.28 15.53Q16.60 14.71 16.60 13.12L16.60 13.12L16.60 13.12Q16.60 12.26 16.79 11.31L16.79 11.31L16.79 11.31Q16.98 10.36 17.32 9.44L17.32 9.44L17.32 9.44Q17.67 8.51 18.14 7.68L18.14 7.68L18.14 7.68Q18.62 6.85 19.19 6.21L19.19 6.21L19.19 6.21Q19.75 5.57 20.41 5.19L20.41 5.19L20.41 5.19Q21.06 4.82 21.74 4.82L21.74 4.82L21.74 4.82Q21.97 4.82 22.16 4.85L22.16 4.85L22.16 4.85Q22.36 4.89 22.58 4.98ZM42.77 7.46L42.77 7.46L42.77 7.46Q42.77 8.13 42.47 8.73L42.47 8.73L42.47 8.73Q42.17 9.32 41.64 9.79L41.64 9.79L41.64 9.79Q41.10 10.26 40.39 10.58L40.39 10.58L40.39 10.58Q39.68 10.91 38.84 11.02L38.84 11.02L38.84 11.02Q39.05 11.65 39.35 12.31L39.35 12.31L39.35 12.31Q39.65 12.98 40.00 13.59L40.00 13.59L40.00 13.59Q40.35 14.21 40.73 14.73L40.73 14.73L40.73 14.73Q41.10 15.25 41.47 15.58L41.47 15.58L41.47 15.58Q41.40 15.72 41.27 15.86L41.27 15.86L41.27 15.86Q41.13 16.00 40.96 16.12L40.96 16.12L40.96 16.12Q40.78 16.24 40.59 16.32L40.59 16.32L40.59 16.32Q40.40 16.39 40.24 16.39L40.24 16.39L40.24 16.39Q39.93 16.39 39.65 16.10L39.65 16.10L39.65 16.10Q39.37 15.81 39.08 15.17L39.08 15.17L39.08 15.17Q38.79 14.53 38.48 13.52L38.48 13.52L38.48 13.52Q38.16 12.50 37.79 11.07L37.79 11.07L37.79 11.07Q37.63 11.07 37.48 11.07L37.48 11.07L37.48 11.07Q37.32 11.07 37.24 11.05L37.24 11.05L37.24 11.05Q37.14 10.99 37.03 10.85L37.03 10.85L37.03 10.85Q36.65 11.66 36.36 12.38L36.36 12.38L36.36 12.38Q36.06 13.09 35.83 13.76L35.83 13.76L35.83 13.76Q35.60 14.42 35.43 15.04L35.43 15.04L35.43 15.04Q35.25 15.67 35.13 16.31L35.13 16.31L35.13 16.31Q34.65 16.20 34.30 15.90L34.30 15.90L34.30 15.90Q33.95 15.61 33.64 15.08L33.64 15.08L33.64 15.08Q33.70 14.95 33.76 14.83L33.76 14.83L33.76 14.83Q33.82 14.71 33.92 14.50L33.92 14.50L33.92 14.50Q34.02 14.28 34.17 13.94L34.17 13.94L34.17 13.94Q34.31 13.61 34.56 13.05L34.56 13.05L34.56 13.05Q34.80 12.49 35.15 11.68L35.15 11.68L35.15 11.68Q35.49 10.86 35.98 9.70L35.98 9.70L35.98 9.70Q36.20 9.18 36.36 8.79L36.36 8.79L36.36 8.79Q36.53 8.40 36.65 8.04L36.65 8.04L36.65 8.04Q36.78 7.69 36.88 7.33L36.88 7.33L36.88 7.33Q36.99 6.97 37.10 6.51L37.10 6.51L37.10 6.51Q36.46 6.73 35.90 7.01L35.90 7.01L35.90 7.01Q35.35 7.28 34.99 7.59L34.99 7.59L34.99 7.59Q34.86 7.50 34.73 7.34L34.73 7.34L34.73 7.34Q34.59 7.17 34.48 6.96L34.48 6.96L34.48 6.96Q34.37 6.76 34.29 6.55L34.29 6.55L34.29 6.55Q34.20 6.34 34.19 6.17L34.19 6.17L34.19 6.17Q34.61 5.89 35.22 5.66L35.22 5.66L35.22 5.66Q35.83 5.42 36.51 5.24L36.51 5.24L36.51 5.24Q37.20 5.07 37.91 4.97L37.91 4.97L37.91 4.97Q38.63 4.87 39.24 4.87L39.24 4.87L39.24 4.87Q40.92 4.87 41.85 5.56L41.85 5.56L41.85 5.56Q42.77 6.26 42.77 7.46ZM39.19 6.02L39.35 6.29L39.35 6.29Q39.26 6.41 39.05 6.79L39.05 6.79L39.05 6.79Q38.84 7.17 38.56 7.69L38.56 7.69L38.56 7.69Q38.29 8.22 37.99 8.83L37.99 8.83L37.99 8.83Q37.69 9.45 37.41 10.05L37.41 10.05L37.41 10.05Q38.46 10.05 39.34 9.86L39.34 9.86L39.34 9.86Q40.22 9.66 40.87 9.30L40.87 9.30L40.87 9.30Q41.51 8.95 41.87 8.46L41.87 8.46L41.87 8.46Q42.22 7.98 42.22 7.39L42.22 7.39L42.22 7.39Q42.22 6.69 41.72 6.32L41.72 6.32L41.72 6.32Q41.22 5.95 40.17 5.95L40.17 5.95L40.17 5.95Q39.93 5.95 39.69 5.97L39.69 5.97L39.69 5.97Q39.45 5.99 39.19 6.02L39.19 6.02ZM63.03 6.69L63.03 6.69L63.03 6.69Q62.47 6.69 62.17 6.38L62.17 6.38L62.17 6.38Q61.87 6.06 61.87 5.61L61.87 5.61L61.87 5.61Q61.87 5.50 61.90 5.35L61.90 5.35L61.90 5.35Q61.94 5.19 61.99 5.08L61.99 5.08L61.99 5.08Q62.17 5.17 62.53 5.20L62.53 5.20L62.53 5.20Q62.89 5.24 63.36 5.24L63.36 5.24L63.36 5.24Q64.08 5.24 64.98 5.17L64.98 5.17L64.98 5.17Q65.88 5.11 66.71 5.04L66.71 5.04L66.71 5.04Q67.54 4.97 68.17 4.91L68.17 4.91L68.17 4.91Q68.80 4.84 68.98 4.84L68.98 4.84L68.98 4.84Q69.50 4.84 69.73 5.23L69.73 5.23L69.73 5.23Q69.96 5.61 70.07 6.26L70.07 6.26L70.07 6.26Q69.71 6.23 69.35 6.21L69.35 6.21L69.35 6.21Q68.99 6.19 68.74 6.19L68.74 6.19L68.74 6.19Q68.29 6.19 67.84 6.22L67.84 6.22L67.84 6.22Q67.38 6.24 66.92 6.30L66.92 6.30L66.92 6.30Q66.72 6.71 66.49 7.26L66.49 7.26L66.49 7.26Q66.25 7.81 66.02 8.41L66.02 8.41L66.02 8.41Q65.79 9.02 65.58 9.61L65.58 9.61L65.58 9.61Q65.37 10.21 65.21 10.68L65.21 10.68L65.21 10.68Q64.90 11.61 64.67 12.39L64.67 12.39L64.67 12.39Q64.44 13.17 64.27 13.85L64.27 13.85L64.27 13.85Q64.09 14.53 63.97 15.15L63.97 15.15L63.97 15.15Q63.84 15.76 63.74 16.35L63.74 16.35L63.74 16.35Q62.80 16.21 62.17 15.18L62.17 15.18L62.17 15.18Q62.29 14.74 62.45 14.23L62.45 14.23L62.45 14.23Q62.61 13.72 62.82 13.07L62.82 13.07L62.82 13.07Q63.04 12.42 63.34 11.59L63.34 11.59L63.34 11.59Q63.63 10.77 64.01 9.72L64.01 9.72L64.01 9.72Q64.15 9.32 64.30 8.90L64.30 8.90L64.30 8.90Q64.46 8.47 64.60 8.05L64.60 8.05L64.60 8.05Q64.75 7.63 64.87 7.24L64.87 7.24L64.87 7.24Q64.99 6.85 65.07 6.52L65.07 6.52L65.07 6.52Q64.48 6.59 63.96 6.64L63.96 6.64L63.96 6.64Q63.43 6.69 63.03 6.69ZM80.95 14.36L80.95 14.36L80.95 14.36Q80.95 13.78 81.14 12.85L81.14 12.85L81.14 12.85Q81.34 11.93 81.66 10.88L81.66 10.88L81.66 10.88Q80.74 10.95 79.81 11.06L79.81 11.06L79.81 11.06Q78.88 11.17 78.19 11.19L78.19 11.19L78.19 11.19Q77.56 12.66 77.19 13.89L77.19 13.89L77.19 13.89Q76.82 15.13 76.61 16.31L76.61 16.31L76.61 16.31Q76.08 16.18 75.73 15.87L75.73 15.87L75.73 15.87Q75.38 15.55 75.08 15.08L75.08 15.08L75.08 15.08Q75.19 14.85 75.34 14.50L75.34 14.50L75.34 14.50Q75.49 14.15 75.69 13.66L75.69 13.66L75.69 13.66Q75.89 13.16 76.15 12.50L76.15 12.50L76.15 12.50Q76.41 11.83 76.75 10.95L76.75 10.95L76.75 10.95Q76.29 10.75 76.13 10.40L76.13 10.40L76.13 10.40Q76.20 10.35 76.45 10.28L76.45 10.28L76.45 10.28Q76.69 10.22 77.06 10.15L77.06 10.15L77.24 9.70L77.24 9.70Q77.53 8.95 77.72 8.43L77.72 8.43L77.72 8.43Q77.91 7.91 78.04 7.41L78.04 7.41L78.04 7.41Q78.18 6.92 78.30 6.31L78.30 6.31L78.30 6.31Q78.41 5.71 78.58 4.79L78.58 4.79L78.58 4.79Q79.17 4.90 79.65 5.31L79.65 5.31L79.65 5.31Q80.14 5.71 80.49 6.29L80.49 6.29L80.49 6.29Q80.36 6.45 80.18 6.79L80.18 6.79L80.18 6.79Q80.00 7.13 79.78 7.59L79.78 7.59L79.78 7.59Q79.56 8.06 79.31 8.64L79.31 8.64L79.31 8.64Q79.06 9.23 78.76 9.87L78.76 9.87L78.76 9.87Q79.63 9.76 80.52 9.66L80.52 9.66L80.52 9.66Q81.41 9.56 82.10 9.52L82.10 9.52L82.10 9.52Q82.35 8.79 82.62 8.10L82.62 8.10L82.62 8.10Q82.89 7.41 83.16 6.83L83.16 6.83L83.16 6.83Q83.43 6.26 83.67 5.82L83.67 5.82L83.67 5.82Q83.92 5.39 84.11 5.18L84.11 5.18L84.11 5.18Q84.25 5.19 84.48 5.29L84.48 5.29L84.48 5.29Q84.71 5.38 84.95 5.50L84.95 5.50L84.95 5.50Q85.19 5.63 85.39 5.78L85.39 5.78L85.39 5.78Q85.58 5.92 85.65 6.05L85.65 6.05L85.65 6.05Q85.40 6.29 85.15 6.66L85.15 6.66L85.15 6.66Q84.90 7.04 84.65 7.53L84.65 7.53L84.65 7.53Q84.41 8.02 84.17 8.60L84.17 8.60L84.17 8.60Q83.93 9.17 83.72 9.79L83.72 9.79L83.72 9.79Q84 10.04 84 10.42L84 10.42L84 10.42Q84 10.68 83.89 10.91L83.89 10.91L83.89 10.91Q83.76 10.88 83.64 10.87L83.64 10.87L83.64 10.87Q83.51 10.86 83.37 10.85L83.37 10.85L83.37 10.85Q83.13 11.61 82.94 12.35L82.94 12.35L82.94 12.35Q82.74 13.09 82.61 13.76L82.61 13.76L82.61 13.76Q82.47 14.43 82.40 14.99L82.40 14.99L82.40 14.99Q82.32 15.55 82.32 15.93L82.32 15.93L82.32 15.93Q82.32 16.07 82.33 16.16L82.33 16.16L82.33 16.16Q82.33 16.24 82.35 16.30L82.35 16.30L82.35 16.30Q82.04 16.28 81.90 16.19L81.90 16.19L81.90 16.19Q81.76 16.10 81.69 16.00L81.69 16.00L81.69 16.00Q81.62 15.89 81.56 15.79L81.56 15.79L81.56 15.79Q81.51 15.68 81.38 15.62L81.38 15.62L81.38 15.62Q81.28 15.58 81.20 15.43L81.20 15.43L81.20 15.43Q81.12 15.27 81.06 15.08L81.06 15.08L81.06 15.08Q81.00 14.88 80.98 14.69L80.98 14.69L80.98 14.69Q80.95 14.49 80.95 14.36ZM97.72 9.21L97.72 9.21L97.72 9.21Q98.18 9.21 98.44 9.46L98.44 9.46L98.44 9.46Q98.70 9.72 98.70 10.16L98.70 10.16L98.70 10.16Q98.70 10.28 98.68 10.39L98.68 10.39L98.68 10.39Q98.66 10.51 98.63 10.60L98.63 10.60L98.63 10.60Q98.45 10.57 98.22 10.55L98.22 10.55L98.22 10.55Q98 10.53 97.69 10.53L97.69 10.53L97.69 10.53Q97.09 10.53 96.47 10.63L96.47 10.63L96.47 10.63Q95.86 10.74 95.30 10.81L95.30 10.81L95.30 10.81Q94.98 11.55 94.71 12.24L94.71 12.24L94.71 12.24Q94.44 12.94 94.25 13.51L94.25 13.51L94.25 13.51Q94.07 14.08 93.96 14.50L93.96 14.50L93.96 14.50Q93.86 14.92 93.84 15.13L93.84 15.13L93.84 15.13Q94.98 14.90 96.13 14.73L96.13 14.73L96.13 14.73Q97.29 14.56 98.56 14.48L98.56 14.48L98.56 14.48Q98.71 14.71 98.82 14.99L98.82 14.99L98.82 14.99Q98.92 15.27 98.92 15.60L98.92 15.60L98.92 15.60Q98.92 15.68 98.92 15.78L98.92 15.78L98.92 15.78Q98.92 15.88 98.90 15.97L98.90 15.97L98.90 15.97Q98.50 15.96 98.07 15.95L98.07 15.95L98.07 15.95Q97.64 15.95 96.94 15.95L96.94 15.95L96.94 15.95Q96.47 15.95 96.06 15.97L96.06 15.97L96.06 15.97Q95.65 15.99 95.23 16.03L95.23 16.03L95.23 16.03Q94.81 16.07 94.34 16.14L94.34 16.14L94.34 16.14Q93.87 16.21 93.28 16.31L93.28 16.31L93.28 16.31Q92.64 16.06 92.04 15.08L92.04 15.08L92.04 15.08Q92.27 14.57 92.70 13.54L92.70 13.54L92.70 13.54Q93.13 12.52 93.79 10.79L93.79 10.79L93.79 10.79Q93.16 10.60 92.96 10.09L92.96 10.09L92.96 10.09Q93.03 10.02 93.37 9.92L93.37 9.92L93.37 9.92Q93.70 9.81 94.19 9.70L94.19 9.70L94.19 9.70Q94.40 9.16 94.55 8.75L94.55 8.75L94.55 8.75Q94.70 8.34 94.81 7.99L94.81 7.99L94.81 7.99Q94.92 7.63 95.01 7.29L95.01 7.29L95.01 7.29Q95.10 6.94 95.19 6.54L95.19 6.54L95.19 6.54Q94.70 6.51 94.42 6.27L94.42 6.27L94.42 6.27Q94.14 6.02 94.14 5.63L94.14 5.63L94.14 5.63Q94.14 5.52 94.17 5.36L94.17 5.36L94.17 5.36Q94.21 5.21 94.25 5.10L94.25 5.10L94.25 5.10Q94.53 5.14 94.79 5.15L94.79 5.15L94.79 5.15Q95.05 5.17 95.47 5.17L95.47 5.17L95.47 5.17Q96.35 5.17 97.12 5.12L97.12 5.12L97.12 5.12Q97.89 5.07 98.51 5.01L98.51 5.01L98.51 5.01Q99.13 4.96 99.58 4.91L99.58 4.91L99.58 4.91Q100.03 4.86 100.27 4.86L100.27 4.86L100.27 4.86Q100.59 4.86 100.84 5.19L100.84 5.19L100.84 5.19Q101.09 5.53 101.22 6.15L101.22 6.15L101.22 6.15Q100.79 6.10 100.51 6.09L100.51 6.09L100.51 6.09Q100.24 6.08 100.03 6.08L100.03 6.08L100.03 6.08Q99.26 6.08 98.62 6.15L98.62 6.15L98.62 6.15Q97.99 6.23 97.40 6.31L97.40 6.31L97.40 6.31Q97.31 6.44 97.21 6.64L97.21 6.64L97.21 6.64Q97.10 6.83 96.94 7.18L96.94 7.18L96.94 7.18Q96.77 7.53 96.52 8.06L96.52 8.06L96.52 8.06Q96.28 8.60 95.93 9.39L95.93 9.39L95.93 9.39Q96.46 9.31 96.93 9.26L96.93 9.26L96.93 9.26Q97.40 9.21 97.72 9.21ZM127.44 7.46L127.44 7.46L127.44 7.46Q127.44 8.33 126.97 9.01L126.97 9.01L126.97 9.01Q126.49 9.69 125.66 10.14L125.66 10.14L125.66 10.14Q126.20 10.50 126.51 11.03L126.51 11.03L126.51 11.03Q126.83 11.55 126.83 12.18L126.83 12.18L126.83 12.18Q126.83 12.94 126.37 13.67L126.37 13.67L126.37 13.67Q125.92 14.41 125.16 14.97L125.16 14.97L125.16 14.97Q124.40 15.54 123.44 15.89L123.44 15.89L123.44 15.89Q122.47 16.24 121.46 16.24L121.46 16.24L121.46 16.24Q120.37 16.24 119.55 15.83L119.55 15.83L119.55 15.83Q118.73 15.41 118.27 14.66L118.27 14.66L118.27 14.66Q118.41 14.24 118.64 13.62L118.64 13.62L118.64 13.62Q118.87 12.99 119.15 12.30L119.15 12.30L119.15 12.30Q119.43 11.61 119.72 10.92L119.72 10.92L119.72 10.92Q120.01 10.23 120.26 9.69L120.26 9.69L120.26 9.69Q120.79 8.50 121.21 7.71L121.21 7.71L121.21 7.71Q121.63 6.93 121.98 6.47L121.98 6.47L121.98 6.47Q121.21 6.71 120.58 7.01L120.58 7.01L120.58 7.01Q119.95 7.31 119.66 7.59L119.66 7.59L119.66 7.59Q119.53 7.50 119.40 7.34L119.40 7.34L119.40 7.34Q119.27 7.17 119.15 6.96L119.15 6.96L119.15 6.96Q119.03 6.76 118.95 6.55L118.95 6.55L118.95 6.55Q118.87 6.34 118.86 6.17L118.86 6.17L118.86 6.17Q119.22 5.92 119.80 5.69L119.80 5.69L119.80 5.69Q120.39 5.46 121.07 5.29L121.07 5.29L121.07 5.29Q121.76 5.12 122.48 5.03L122.48 5.03L122.48 5.03Q123.20 4.93 123.86 4.93L123.86 4.93L123.86 4.93Q125.54 4.93 126.49 5.60L126.49 5.60L126.49 5.60Q127.44 6.27 127.44 7.46ZM122.11 10.81L122.11 10.81L122.11 10.81Q121.84 10.68 121.62 10.43L121.62 10.43L121.62 10.43Q121.30 11.14 121.01 11.83L121.01 11.83L121.01 11.83Q120.72 12.52 120.50 13.10L120.50 13.10L120.50 13.10Q120.27 13.69 120.13 14.13L120.13 14.13L120.13 14.13Q119.99 14.56 119.98 14.76L119.98 14.76L119.98 14.76Q120.18 14.87 120.45 14.92L120.45 14.92L120.45 14.92Q120.72 14.98 121.13 14.98L121.13 14.98L121.13 14.98Q122.08 14.98 122.95 14.71L122.95 14.71L122.95 14.71Q123.82 14.45 124.47 13.99L124.47 13.99L124.47 13.99Q125.13 13.54 125.52 12.95L125.52 12.95L125.52 12.95Q125.92 12.36 125.92 11.72L125.92 11.72L125.92 11.72Q125.92 10.79 125.12 10.39L125.12 10.39L125.12 10.39Q124.03 10.84 122.65 10.84L122.65 10.84L122.65 10.84Q122.46 10.84 122.35 10.84L122.35 10.84L122.35 10.84Q122.25 10.84 122.11 10.81ZM124.82 5.95L124.82 5.95L124.82 5.95Q124.53 5.95 124.20 5.98L124.20 5.98L124.20 5.98Q123.87 6.02 123.51 6.09L123.51 6.09L123.51 6.09Q123.56 6.15 123.60 6.21L123.60 6.21L123.60 6.21Q123.63 6.27 123.66 6.34L123.66 6.34L123.66 6.34Q123.54 6.51 123.35 6.83L123.35 6.83L123.35 6.83Q123.17 7.15 122.95 7.58L122.95 7.58L122.95 7.58Q122.72 8.01 122.48 8.53L122.48 8.53L122.48 8.53Q122.23 9.04 121.98 9.59L121.98 9.59L121.98 9.59Q122.22 9.53 122.56 9.50L122.56 9.50L122.56 9.50Q122.91 9.46 123.24 9.46L123.24 9.46L123.24 9.46Q123.42 9.46 123.60 9.48L123.60 9.48L123.60 9.48Q123.77 9.49 123.94 9.52L123.94 9.52L123.94 9.52Q124.61 9.41 125.15 9.19L125.15 9.19L125.15 9.19Q125.69 8.97 126.08 8.69L126.08 8.69L126.08 8.69Q126.48 8.40 126.69 8.05L126.69 8.05L126.69 8.05Q126.90 7.70 126.90 7.31L126.90 7.31L126.90 7.31Q126.90 6.64 126.36 6.29L126.36 6.29L126.36 6.29Q125.83 5.95 124.82 5.95ZM140.57 9.21L140.57 9.21L140.57 9.21Q141.04 9.21 141.29 9.46L141.29 9.46L141.29 9.46Q141.55 9.72 141.55 10.16L141.55 10.16L141.55 10.16Q141.55 10.28 141.53 10.39L141.53 10.39L141.53 10.39Q141.51 10.51 141.48 10.60L141.48 10.60L141.48 10.60Q141.30 10.57 141.08 10.55L141.08 10.55L141.08 10.55Q140.85 10.53 140.55 10.53L140.55 10.53L140.55 10.53Q139.94 10.53 139.33 10.63L139.33 10.63L139.33 10.63Q138.71 10.74 138.15 10.81L138.15 10.81L138.15 10.81Q137.83 11.55 137.56 12.24L137.56 12.24L137.56 12.24Q137.30 12.94 137.11 13.51L137.11 13.51L137.11 13.51Q136.92 14.08 136.81 14.50L136.81 14.50L136.81 14.50Q136.71 14.92 136.70 15.13L136.70 15.13L136.70 15.13Q137.83 14.90 138.98 14.73L138.98 14.73L138.98 14.73Q140.14 14.56 141.41 14.48L141.41 14.48L141.41 14.48Q141.57 14.71 141.67 14.99L141.67 14.99L141.67 14.99Q141.78 15.27 141.78 15.60L141.78 15.60L141.78 15.60Q141.78 15.68 141.78 15.78L141.78 15.78L141.78 15.78Q141.78 15.88 141.75 15.97L141.75 15.97L141.75 15.97Q141.36 15.96 140.92 15.95L140.92 15.95L140.92 15.95Q140.49 15.95 139.79 15.95L139.79 15.95L139.79 15.95Q139.33 15.95 138.91 15.97L138.91 15.97L138.91 15.97Q138.50 15.99 138.08 16.03L138.08 16.03L138.08 16.03Q137.66 16.07 137.19 16.14L137.19 16.14L137.19 16.14Q136.72 16.21 136.14 16.31L136.14 16.31L136.14 16.31Q135.49 16.06 134.89 15.08L134.89 15.08L134.89 15.08Q135.13 14.57 135.55 13.54L135.55 13.54L135.55 13.54Q135.98 12.52 136.64 10.79L136.64 10.79L136.64 10.79Q136.01 10.60 135.81 10.09L135.81 10.09L135.81 10.09Q135.88 10.02 136.22 9.92L136.22 9.92L136.22 9.92Q136.56 9.81 137.05 9.70L137.05 9.70L137.05 9.70Q137.26 9.16 137.40 8.75L137.40 8.75L137.40 8.75Q137.55 8.34 137.66 7.99L137.66 7.99L137.66 7.99Q137.77 7.63 137.86 7.29L137.86 7.29L137.86 7.29Q137.96 6.94 138.04 6.54L138.04 6.54L138.04 6.54Q137.55 6.51 137.27 6.27L137.27 6.27L137.27 6.27Q136.99 6.02 136.99 5.63L136.99 5.63L136.99 5.63Q136.99 5.52 137.02 5.36L137.02 5.36L137.02 5.36Q137.06 5.21 137.10 5.10L137.10 5.10L137.10 5.10Q137.38 5.14 137.64 5.15L137.64 5.15L137.64 5.15Q137.90 5.17 138.32 5.17L138.32 5.17L138.32 5.17Q139.20 5.17 139.97 5.12L139.97 5.12L139.97 5.12Q140.74 5.07 141.36 5.01L141.36 5.01L141.36 5.01Q141.99 4.96 142.44 4.91L142.44 4.91L142.44 4.91Q142.88 4.86 143.12 4.86L143.12 4.86L143.12 4.86Q143.44 4.86 143.70 5.19L143.70 5.19L143.70 5.19Q143.95 5.53 144.07 6.15L144.07 6.15L144.07 6.15Q143.64 6.10 143.37 6.09L143.37 6.09L143.37 6.09Q143.09 6.08 142.88 6.08L142.88 6.08L142.88 6.08Q142.11 6.08 141.48 6.15L141.48 6.15L141.48 6.15Q140.84 6.23 140.25 6.31L140.25 6.31L140.25 6.31Q140.17 6.44 140.06 6.64L140.06 6.64L140.06 6.64Q139.96 6.83 139.79 7.18L139.79 7.18L139.79 7.18Q139.62 7.53 139.38 8.06L139.38 8.06L139.38 8.06Q139.13 8.60 138.78 9.39L138.78 9.39L138.78 9.39Q139.31 9.31 139.78 9.26L139.78 9.26L139.78 9.26Q140.25 9.21 140.57 9.21ZM159.45 5.74L159.45 5.74L159.45 5.74Q159.49 5.98 159.51 6.07L159.51 6.07L159.51 6.07Q159.53 6.16 159.53 6.31L159.53 6.31L159.53 6.31Q159.53 6.78 159.33 7.18L159.33 7.18L159.33 7.18Q159.12 7.57 158.77 7.74L158.77 7.74L158.77 7.74Q158.49 7.36 158.09 7.09L158.09 7.09L158.09 7.09Q157.68 6.82 157.20 6.64L157.20 6.64L157.20 6.64Q156.72 6.47 156.20 6.38L156.20 6.38L156.20 6.38Q155.68 6.30 155.19 6.30L155.19 6.30L155.19 6.30Q154.70 6.30 154.27 6.38L154.27 6.38L154.27 6.38Q153.85 6.45 153.52 6.59L153.52 6.59L153.52 6.59Q153.19 6.72 153.00 6.92L153.00 6.92L153.00 6.92Q152.81 7.11 152.81 7.36L152.81 7.36L152.81 7.36Q152.85 7.67 153.19 7.99L153.19 7.99L153.19 7.99Q153.52 8.30 154.01 8.60L154.01 8.60L154.01 8.60Q154.50 8.90 155.10 9.20L155.10 9.20L155.10 9.20Q155.69 9.49 156.27 9.76L156.27 9.76L156.27 9.76Q156.98 10.09 157.50 10.38L157.50 10.38L157.50 10.38Q158.02 10.67 158.35 11.01L158.35 11.01L158.35 11.01Q158.69 11.35 158.86 11.79L158.86 11.79L158.86 11.79Q159.03 12.22 159.03 12.84L159.03 12.84L159.03 12.84Q159.03 13.55 158.79 14.18L158.79 14.18L158.79 14.18Q158.55 14.80 158.09 15.26L158.09 15.26L158.09 15.26Q157.64 15.72 157.00 15.98L157.00 15.98L157.00 15.98Q156.35 16.24 155.55 16.24L155.55 16.24L155.55 16.24Q154.77 16.24 153.86 16.00L153.86 16.00L153.86 16.00Q152.95 15.76 152.16 15.35L152.16 15.35L152.16 15.35Q151.37 14.94 150.84 14.40L150.84 14.40L150.84 14.40Q150.32 13.86 150.32 13.26L150.32 13.26L150.32 13.26Q150.32 12.98 150.48 12.54L150.48 12.54L150.48 12.54Q150.64 12.11 151.06 11.63L151.06 11.63L151.06 11.63Q151.10 12.05 151.51 12.63L151.51 12.63L151.51 12.63Q151.93 13.20 152.75 13.69L152.75 13.69L152.75 13.69Q153.52 14.14 154.34 14.34L154.34 14.34L154.34 14.34Q155.16 14.55 155.88 14.55L155.88 14.55L155.88 14.55Q156.66 14.55 157.15 14.35L157.15 14.35L157.15 14.35Q157.64 14.15 157.92 13.88L157.92 13.88L157.92 13.88Q158.20 13.61 158.31 13.33L158.31 13.33L158.31 13.33Q158.42 13.05 158.44 12.88L158.44 12.88L158.44 12.88Q158.42 12.60 158.18 12.34L158.18 12.34L158.18 12.34Q157.93 12.08 157.52 11.84L157.52 11.84L157.52 11.84Q157.11 11.59 156.56 11.34L156.56 11.34L156.56 11.34Q156.02 11.09 155.43 10.84L155.43 10.84L155.43 10.84Q154.55 10.44 153.91 10.10L153.91 10.10L153.91 10.10Q153.27 9.76 152.86 9.40L152.86 9.40L152.86 9.40Q152.45 9.04 152.26 8.65L152.26 8.65L152.26 8.65Q152.07 8.26 152.07 7.76L152.07 7.76L152.07 7.76Q152.07 6.97 152.54 6.27L152.54 6.27L152.54 6.27Q153.02 5.57 153.92 5.21L153.92 5.21L153.92 5.21Q154.36 5.01 154.88 4.93L154.88 4.93L154.88 4.93Q155.39 4.84 155.88 4.84L155.88 4.84L155.88 4.84Q156.80 4.84 157.68 5.10L157.68 5.10L157.68 5.10Q158.56 5.35 159.45 5.74ZM169.43 6.69L169.43 6.69L169.43 6.69Q168.87 6.69 168.57 6.38L168.57 6.38L168.57 6.38Q168.27 6.06 168.27 5.61L168.27 5.61L168.27 5.61Q168.27 5.50 168.30 5.35L168.30 5.35L168.30 5.35Q168.34 5.19 168.39 5.08L168.39 5.08L168.39 5.08Q168.57 5.17 168.93 5.20L168.93 5.20L168.93 5.20Q169.29 5.24 169.76 5.24L169.76 5.24L169.76 5.24Q170.48 5.24 171.38 5.17L171.38 5.17L171.38 5.17Q172.28 5.11 173.11 5.04L173.11 5.04L173.11 5.04Q173.94 4.97 174.57 4.91L174.57 4.91L174.57 4.91Q175.20 4.84 175.38 4.84L175.38 4.84L175.38 4.84Q175.90 4.84 176.13 5.23L176.13 5.23L176.13 5.23Q176.36 5.61 176.47 6.26L176.47 6.26L176.47 6.26Q176.11 6.23 175.75 6.21L175.75 6.21L175.75 6.21Q175.39 6.19 175.14 6.19L175.14 6.19L175.14 6.19Q174.69 6.19 174.24 6.22L174.24 6.22L174.24 6.22Q173.78 6.24 173.32 6.30L173.32 6.30L173.32 6.30Q173.12 6.71 172.89 7.26L172.89 7.26L172.89 7.26Q172.65 7.81 172.42 8.41L172.42 8.41L172.42 8.41Q172.19 9.02 171.98 9.61L171.98 9.61L171.98 9.61Q171.77 10.21 171.61 10.68L171.61 10.68L171.61 10.68Q171.30 11.61 171.07 12.39L171.07 12.39L171.07 12.39Q170.84 13.17 170.67 13.85L170.67 13.85L170.67 13.85Q170.49 14.53 170.37 15.15L170.37 15.15L170.37 15.15Q170.24 15.76 170.14 16.35L170.14 16.35L170.14 16.35Q169.20 16.21 168.57 15.18L168.57 15.18L168.57 15.18Q168.69 14.74 168.85 14.23L168.85 14.23L168.85 14.23Q169.01 13.72 169.22 13.07L169.22 13.07L169.22 13.07Q169.44 12.42 169.74 11.59L169.74 11.59L169.74 11.59Q170.03 10.77 170.41 9.72L170.41 9.72L170.41 9.72Q170.55 9.32 170.70 8.90L170.70 8.90L170.70 8.90Q170.86 8.47 171.00 8.05L171.00 8.05L171.00 8.05Q171.15 7.63 171.27 7.24L171.27 7.24L171.27 7.24Q171.39 6.85 171.47 6.52L171.47 6.52L171.47 6.52Q170.88 6.59 170.36 6.64L170.36 6.64L170.36 6.64Q169.83 6.69 169.43 6.69ZM201.87 7.46L201.87 7.46L201.87 7.46Q201.87 8.33 201.39 9.01L201.39 9.01L201.39 9.01Q200.91 9.69 200.09 10.14L200.09 10.14L200.09 10.14Q200.62 10.50 200.93 11.03L200.93 11.03L200.93 11.03Q201.25 11.55 201.25 12.18L201.25 12.18L201.25 12.18Q201.25 12.94 200.79 13.67L200.79 13.67L200.79 13.67Q200.34 14.41 199.58 14.97L199.58 14.97L199.58 14.97Q198.83 15.54 197.86 15.89L197.86 15.89L197.86 15.89Q196.90 16.24 195.89 16.24L195.89 16.24L195.89 16.24Q194.80 16.24 193.98 15.83L193.98 15.83L193.98 15.83Q193.16 15.41 192.70 14.66L192.70 14.66L192.70 14.66Q192.84 14.24 193.07 13.62L193.07 13.62L193.07 13.62Q193.30 12.99 193.58 12.30L193.58 12.30L193.58 12.30Q193.86 11.61 194.14 10.92L194.14 10.92L194.14 10.92Q194.43 10.23 194.68 9.69L194.68 9.69L194.68 9.69Q195.22 8.50 195.64 7.71L195.64 7.71L195.64 7.71Q196.06 6.93 196.41 6.47L196.41 6.47L196.41 6.47Q195.64 6.71 195.01 7.01L195.01 7.01L195.01 7.01Q194.38 7.31 194.08 7.59L194.08 7.59L194.08 7.59Q193.96 7.50 193.82 7.34L193.82 7.34L193.82 7.34Q193.69 7.17 193.57 6.96L193.57 6.96L193.57 6.96Q193.45 6.76 193.37 6.55L193.37 6.55L193.37 6.55Q193.30 6.34 193.28 6.17L193.28 6.17L193.28 6.17Q193.65 5.92 194.23 5.69L194.23 5.69L194.23 5.69Q194.81 5.46 195.50 5.29L195.50 5.29L195.50 5.29Q196.18 5.12 196.90 5.03L196.90 5.03L196.90 5.03Q197.62 4.93 198.28 4.93L198.28 4.93L198.28 4.93Q199.96 4.93 200.91 5.60L200.91 5.60L200.91 5.60Q201.87 6.27 201.87 7.46ZM196.53 10.81L196.53 10.81L196.53 10.81Q196.27 10.68 196.04 10.43L196.04 10.43L196.04 10.43Q195.72 11.14 195.43 11.83L195.43 11.83L195.43 11.83Q195.15 12.52 194.92 13.10L194.92 13.10L194.92 13.10Q194.70 13.69 194.56 14.13L194.56 14.13L194.56 14.13Q194.42 14.56 194.40 14.76L194.40 14.76L194.40 14.76Q194.60 14.87 194.87 14.92L194.87 14.92L194.87 14.92Q195.15 14.98 195.55 14.98L195.55 14.98L195.55 14.98Q196.50 14.98 197.37 14.71L197.37 14.71L197.37 14.71Q198.24 14.45 198.90 13.99L198.90 13.99L198.90 13.99Q199.56 13.54 199.95 12.95L199.95 12.95L199.95 12.95Q200.34 12.36 200.34 11.72L200.34 11.72L200.34 11.72Q200.34 10.79 199.54 10.39L199.54 10.39L199.54 10.39Q198.45 10.84 197.08 10.84L197.08 10.84L197.08 10.84Q196.88 10.84 196.78 10.84L196.78 10.84L196.78 10.84Q196.67 10.84 196.53 10.81ZM199.25 5.95L199.25 5.95L199.25 5.95Q198.95 5.95 198.62 5.98L198.62 5.98L198.62 5.98Q198.30 6.02 197.93 6.09L197.93 6.09L197.93 6.09Q197.99 6.15 198.02 6.21L198.02 6.21L198.02 6.21Q198.06 6.27 198.09 6.34L198.09 6.34L198.09 6.34Q197.96 6.51 197.78 6.83L197.78 6.83L197.78 6.83Q197.60 7.15 197.37 7.58L197.37 7.58L197.37 7.58Q197.15 8.01 196.90 8.53L196.90 8.53L196.90 8.53Q196.66 9.04 196.41 9.59L196.41 9.59L196.41 9.59Q196.64 9.53 196.99 9.50L196.99 9.50L196.99 9.50Q197.33 9.46 197.67 9.46L197.67 9.46L197.67 9.46Q197.85 9.46 198.02 9.48L198.02 9.48L198.02 9.48Q198.20 9.49 198.37 9.52L198.37 9.52L198.37 9.52Q199.04 9.41 199.58 9.19L199.58 9.19L199.58 9.19Q200.12 8.97 200.51 8.69L200.51 8.69L200.51 8.69Q200.90 8.40 201.11 8.05L201.11 8.05L201.11 8.05Q201.32 7.70 201.32 7.31L201.32 7.31L201.32 7.31Q201.32 6.64 200.79 6.29L200.79 6.29L200.79 6.29Q200.26 5.95 199.25 5.95ZM215.00 9.21L215.00 9.21L215.00 9.21Q215.46 9.21 215.72 9.46L215.72 9.46L215.72 9.46Q215.98 9.72 215.98 10.16L215.98 10.16L215.98 10.16Q215.98 10.28 215.96 10.39L215.96 10.39L215.96 10.39Q215.94 10.51 215.91 10.60L215.91 10.60L215.91 10.60Q215.73 10.57 215.50 10.55L215.50 10.55L215.50 10.55Q215.28 10.53 214.97 10.53L214.97 10.53L214.97 10.53Q214.37 10.53 213.75 10.63L213.75 10.63L213.75 10.63Q213.14 10.74 212.58 10.81L212.58 10.81L212.58 10.81Q212.25 11.55 211.99 12.24L211.99 12.24L211.99 12.24Q211.72 12.94 211.53 13.51L211.53 13.51L211.53 13.51Q211.34 14.08 211.24 14.50L211.24 14.50L211.24 14.50Q211.13 14.92 211.12 15.13L211.12 15.13L211.12 15.13Q212.25 14.90 213.41 14.73L213.41 14.73L213.41 14.73Q214.56 14.56 215.84 14.48L215.84 14.48L215.84 14.48Q215.99 14.71 216.10 14.99L216.10 14.99L216.10 14.99Q216.20 15.27 216.20 15.60L216.20 15.60L216.20 15.60Q216.20 15.68 216.20 15.78L216.20 15.78L216.20 15.78Q216.20 15.88 216.17 15.97L216.17 15.97L216.17 15.97Q215.78 15.96 215.35 15.95L215.35 15.95L215.35 15.95Q214.91 15.95 214.21 15.95L214.21 15.95L214.21 15.95Q213.75 15.95 213.34 15.97L213.34 15.97L213.34 15.97Q212.93 15.99 212.51 16.03L212.51 16.03L212.51 16.03Q212.09 16.07 211.62 16.14L211.62 16.14L211.62 16.14Q211.15 16.21 210.56 16.31L210.56 16.31L210.56 16.31Q209.92 16.06 209.31 15.08L209.31 15.08L209.31 15.08Q209.55 14.57 209.98 13.54L209.98 13.54L209.98 13.54Q210.41 12.52 211.06 10.79L211.06 10.79L211.06 10.79Q210.43 10.60 210.24 10.09L210.24 10.09L210.24 10.09Q210.31 10.02 210.64 9.92L210.64 9.92L210.64 9.92Q210.98 9.81 211.47 9.70L211.47 9.70L211.47 9.70Q211.68 9.16 211.83 8.75L211.83 8.75L211.83 8.75Q211.97 8.34 212.09 7.99L212.09 7.99L212.09 7.99Q212.20 7.63 212.29 7.29L212.29 7.29L212.29 7.29Q212.38 6.94 212.46 6.54L212.46 6.54L212.46 6.54Q211.97 6.51 211.69 6.27L211.69 6.27L211.69 6.27Q211.41 6.02 211.41 5.63L211.41 5.63L211.41 5.63Q211.41 5.52 211.45 5.36L211.45 5.36L211.45 5.36Q211.48 5.21 211.53 5.10L211.53 5.10L211.53 5.10Q211.81 5.14 212.06 5.15L212.06 5.15L212.06 5.15Q212.32 5.17 212.74 5.17L212.74 5.17L212.74 5.17Q213.63 5.17 214.40 5.12L214.40 5.12L214.40 5.12Q215.17 5.07 215.79 5.01L215.79 5.01L215.79 5.01Q216.41 4.96 216.86 4.91L216.86 4.91L216.86 4.91Q217.31 4.86 217.55 4.86L217.55 4.86L217.55 4.86Q217.87 4.86 218.12 5.19L218.12 5.19L218.12 5.19Q218.37 5.53 218.50 6.15L218.50 6.15L218.50 6.15Q218.06 6.10 217.79 6.09L217.79 6.09L217.79 6.09Q217.52 6.08 217.31 6.08L217.31 6.08L217.31 6.08Q216.54 6.08 215.90 6.15L215.90 6.15L215.90 6.15Q215.26 6.23 214.68 6.31L214.68 6.31L214.68 6.31Q214.59 6.44 214.49 6.64L214.49 6.64L214.49 6.64Q214.38 6.83 214.21 7.18L214.21 7.18L214.21 7.18Q214.05 7.53 213.80 8.06L213.80 8.06L213.80 8.06Q213.56 8.60 213.21 9.39L213.21 9.39L213.21 9.39Q213.74 9.31 214.21 9.26L214.21 9.26L214.21 9.26Q214.68 9.21 215.00 9.21ZM225.37 16.24L225.37 16.24L225.37 16.24Q224.70 16.04 224.44 15.85L224.44 15.85L224.44 15.85Q224.18 15.65 224.18 15.36L224.18 15.36L224.18 15.36Q224.18 15.13 224.31 14.73L224.31 14.73L224.31 14.73Q224.43 14.32 224.68 13.77L224.68 13.77L224.68 13.77Q224.92 13.22 225.27 12.54L225.27 12.54L225.27 12.54Q225.61 11.87 226.04 11.10L226.04 11.10L226.04 11.10Q225.68 11.09 225.39 11.08L225.39 11.08L225.39 11.08Q225.11 11.07 224.92 11.07L224.92 11.07L224.92 11.07Q225.01 10.86 225.40 10.71L225.40 10.71L225.40 10.71Q225.79 10.56 226.44 10.44L226.44 10.44L226.44 10.44Q226.98 9.53 227.60 8.71L227.60 8.71L227.60 8.71Q228.23 7.88 228.86 7.19L228.86 7.19L228.86 7.19Q229.49 6.50 230.12 5.97L230.12 5.97L230.12 5.97Q230.75 5.45 231.32 5.14L231.32 5.14L231.32 5.14Q231.34 5.04 231.34 4.97L231.34 4.97L231.34 4.97Q231.35 4.90 231.35 4.87L231.35 4.87L231.35 4.87Q231.55 4.87 231.88 4.97L231.88 4.97L231.88 4.97Q232.20 5.07 232.52 5.21L232.52 5.21L232.52 5.21Q232.83 5.35 233.08 5.49L233.08 5.49L233.08 5.49Q233.32 5.64 233.35 5.74L233.35 5.74L233.35 5.74Q232.89 6.55 232.44 8.17L232.44 8.17L232.44 8.17Q231.99 9.79 231.70 12.04L231.70 12.04L231.70 12.04Q231.63 12.60 231.58 13.31L231.58 13.31L231.58 13.31Q231.53 14.03 231.53 14.91L231.53 14.91L231.53 14.91Q231.53 15.22 231.53 15.54L231.53 15.54L231.53 15.54Q231.53 15.86 231.56 16.21L231.56 16.21L231.56 16.21Q231.53 16.23 231.50 16.23L231.50 16.23L231.50 16.23Q231.48 16.23 231.39 16.23L231.39 16.23L231.39 16.23Q231.20 16.23 230.94 16.16L230.94 16.16L230.94 16.16Q230.68 16.10 230.43 16.01L230.43 16.01L230.43 16.01Q230.19 15.92 230.01 15.81L230.01 15.81L230.01 15.81Q229.84 15.69 229.80 15.61L229.80 15.61L229.80 15.61Q229.78 15.43 229.78 15.25L229.78 15.25L229.78 15.25Q229.78 15.08 229.78 14.88L229.78 14.88L229.78 14.88Q229.78 14.01 229.84 13.12L229.84 13.12L229.84 13.12Q229.91 12.22 230.06 11.27L230.06 11.27L230.06 11.27Q229.87 11.26 229.54 11.23L229.54 11.23L229.54 11.23Q229.22 11.21 228.82 11.20L228.82 11.20L228.82 11.20Q228.42 11.19 227.97 11.16L227.97 11.16L227.97 11.16Q227.51 11.14 227.08 11.13L227.08 11.13L227.08 11.13Q226.74 11.76 226.45 12.38L226.45 12.38L226.45 12.38Q226.16 13.01 225.95 13.64L225.95 13.64L225.95 13.64Q225.71 14.31 225.56 14.98L225.56 14.98L225.56 14.98Q225.41 15.65 225.37 16.24ZM230.78 7.83L230.78 7.83L230.78 7.83Q230.83 7.63 230.91 7.29L230.91 7.29L230.91 7.29Q230.99 6.94 231.06 6.57L231.06 6.57L231.06 6.57Q230.71 6.69 230.28 7.03L230.28 7.03L230.28 7.03Q229.85 7.36 229.40 7.86L229.40 7.86L229.40 7.86Q228.94 8.36 228.47 8.98L228.47 8.98L228.47 8.98Q228.00 9.60 227.57 10.30L227.57 10.30L227.57 10.30Q228.75 10.21 230.24 10.18L230.24 10.18L230.24 10.18Q230.36 9.59 230.49 9.01L230.49 9.01L230.49 9.01Q230.62 8.43 230.78 7.83ZM245.90 5.75L245.90 5.75L245.90 5.75Q245.28 6.58 244.78 7.57L244.78 7.57L244.78 7.57Q244.27 8.57 243.91 9.61L243.91 9.61L243.91 9.61Q243.56 10.65 243.37 11.67L243.37 11.67L243.37 11.67Q243.18 12.68 243.18 13.57L243.18 13.57L243.18 13.57Q243.18 14.66 243.50 15.15L243.50 15.15L243.50 15.15Q243.82 15.64 244.61 15.64L244.61 15.64L244.61 15.64Q245.52 15.64 246.20 15.00L246.20 15.00L246.20 15.00Q246.89 14.36 247.49 13.24L247.49 13.24L247.49 13.24Q247.88 12.52 248.16 11.65L248.16 11.65L248.16 11.65Q248.44 10.78 248.62 9.86L248.62 9.86L248.62 9.86Q248.79 8.95 248.88 8.02L248.88 8.02L248.88 8.02Q248.96 7.08 248.96 6.23L248.96 6.23L248.96 6.23Q248.96 5.68 248.95 5.43L248.95 5.43L248.95 5.43Q248.93 5.18 248.91 5.03L248.91 5.03L248.91 5.03Q248.95 5.03 249.12 5.05L249.12 5.05L249.12 5.05Q249.28 5.08 249.50 5.12L249.50 5.12L249.50 5.12Q249.72 5.17 249.94 5.24L249.94 5.24L249.94 5.24Q250.15 5.31 250.31 5.39L250.31 5.39L250.31 5.39Q250.24 6.45 250.05 7.59L250.05 7.59L250.05 7.59Q249.86 8.72 249.55 9.83L249.55 9.83L249.55 9.83Q249.24 10.93 248.84 11.96L248.84 11.96L248.84 11.96Q248.43 12.98 247.93 13.79L247.93 13.79L247.93 13.79Q247.18 14.99 246.26 15.67L246.26 15.67L246.26 15.67Q245.34 16.35 244.08 16.35L244.08 16.35L244.08 16.35Q242.79 16.35 242.07 15.60L242.07 15.60L242.07 15.60Q241.36 14.85 241.36 13.33L241.36 13.33L241.36 13.33Q241.36 12.45 241.56 11.33L241.56 11.33L241.56 11.33Q241.75 10.22 242.08 9.07L242.08 9.07L242.08 9.07Q242.41 7.91 242.84 6.81L242.84 6.81L242.84 6.81Q243.28 5.71 243.75 4.84L243.75 4.84L243.75 4.84Q243.99 4.86 244.31 4.94L244.31 4.94L244.31 4.94Q244.64 5.03 244.94 5.16L244.94 5.16L244.94 5.16Q245.25 5.29 245.51 5.45L245.51 5.45L245.51 5.45Q245.77 5.61 245.90 5.75ZM259.94 6.69L259.94 6.69L259.94 6.69Q259.38 6.69 259.08 6.38L259.08 6.38L259.08 6.38Q258.78 6.06 258.78 5.61L258.78 5.61L258.78 5.61Q258.78 5.50 258.81 5.35L258.81 5.35L258.81 5.35Q258.85 5.19 258.90 5.08L258.90 5.08L258.90 5.08Q259.08 5.17 259.44 5.20L259.44 5.20L259.44 5.20Q259.80 5.24 260.27 5.24L260.27 5.24L260.27 5.24Q260.99 5.24 261.89 5.17L261.89 5.17L261.89 5.17Q262.79 5.11 263.62 5.04L263.62 5.04L263.62 5.04Q264.45 4.97 265.08 4.91L265.08 4.91L265.08 4.91Q265.71 4.84 265.89 4.84L265.89 4.84L265.89 4.84Q266.41 4.84 266.64 5.23L266.64 5.23L266.64 5.23Q266.87 5.61 266.98 6.26L266.98 6.26L266.98 6.26Q266.62 6.23 266.26 6.21L266.26 6.21L266.26 6.21Q265.90 6.19 265.65 6.19L265.65 6.19L265.65 6.19Q265.20 6.19 264.75 6.22L264.75 6.22L264.75 6.22Q264.29 6.24 263.83 6.30L263.83 6.30L263.83 6.30Q263.63 6.71 263.40 7.26L263.40 7.26L263.40 7.26Q263.16 7.81 262.93 8.41L262.93 8.41L262.93 8.41Q262.70 9.02 262.49 9.61L262.49 9.61L262.49 9.61Q262.28 10.21 262.12 10.68L262.12 10.68L262.12 10.68Q261.81 11.61 261.58 12.39L261.58 12.39L261.58 12.39Q261.35 13.17 261.18 13.85L261.18 13.85L261.18 13.85Q261.00 14.53 260.88 15.15L260.88 15.15L260.88 15.15Q260.75 15.76 260.65 16.35L260.65 16.35L260.65 16.35Q259.71 16.21 259.08 15.18L259.08 15.18L259.08 15.18Q259.20 14.74 259.36 14.23L259.36 14.23L259.36 14.23Q259.52 13.72 259.74 13.07L259.74 13.07L259.74 13.07Q259.95 12.42 260.25 11.59L260.25 11.59L260.25 11.59Q260.54 10.77 260.92 9.72L260.92 9.72L260.92 9.72Q261.06 9.32 261.21 8.90L261.21 8.90L261.21 8.90Q261.37 8.47 261.51 8.05L261.51 8.05L261.51 8.05Q261.66 7.63 261.78 7.24L261.78 7.24L261.78 7.24Q261.90 6.85 261.98 6.52L261.98 6.52L261.98 6.52Q261.39 6.59 260.87 6.64L260.87 6.64L260.87 6.64Q260.34 6.69 259.94 6.69ZM277.56 10.35L277.56 10.35L277.56 10.35Q278.61 9.20 279.45 7.91L279.45 7.91L279.45 7.91Q280.28 6.62 280.99 5.01L280.99 5.01L280.99 5.01Q281.36 5.05 281.69 5.21L281.69 5.21L281.69 5.21Q282.03 5.36 282.23 5.56L282.23 5.56L282.23 5.56Q281.46 6.48 280.83 7.24L280.83 7.24L280.83 7.24Q280.21 7.99 279.69 8.66L279.69 8.66L279.69 8.66Q279.17 9.32 278.73 9.93L278.73 9.93L278.73 9.93Q278.29 10.54 277.87 11.16L277.87 11.16L277.87 11.16Q277.66 11.87 277.48 12.60L277.48 12.60L277.48 12.60Q277.30 13.33 277.16 13.99L277.16 13.99L277.16 13.99Q277.02 14.66 276.94 15.22L276.94 15.22L276.94 15.22Q276.86 15.79 276.86 16.20L276.86 16.20L276.86 16.20Q276.71 16.20 276.37 16.14L276.37 16.14L276.37 16.14Q276.04 16.07 275.69 15.99L275.69 15.99L275.69 15.99Q275.34 15.90 275.05 15.82L275.05 15.82L275.05 15.82Q274.76 15.74 274.71 15.68L274.71 15.68L274.71 15.68Q274.93 15.30 275.15 14.75L275.15 14.75L275.15 14.75Q275.37 14.20 275.58 13.59L275.58 13.59L275.58 13.59Q275.79 12.98 275.98 12.36L275.98 12.36L275.98 12.36Q276.18 11.73 276.35 11.20L276.35 11.20L276.35 11.20Q276.00 10.11 275.67 9.15L275.67 9.15L275.67 9.15Q275.34 8.19 275.03 7.41L275.03 7.41L275.03 7.41Q274.72 6.64 274.44 6.08L274.44 6.08L274.44 6.08Q274.16 5.52 273.91 5.22L273.91 5.22L273.91 5.22Q274.05 5.17 274.34 5.11L274.34 5.11L274.34 5.11Q274.62 5.05 274.97 5.00L274.97 5.00L274.97 5.00Q275.31 4.94 275.67 4.91L275.67 4.91L275.67 4.91Q276.02 4.87 276.30 4.86L276.30 4.86L276.30 4.86Q276.30 5.21 276.37 5.71L276.37 5.71L276.37 5.71Q276.43 6.22 276.54 6.79L276.54 6.79L276.54 6.79Q276.64 7.36 276.78 7.95L276.78 7.95L276.78 7.95Q276.92 8.54 277.06 9.03L277.06 9.03L277.06 9.03Q277.20 9.52 277.33 9.88L277.33 9.88L277.33 9.88Q277.47 10.23 277.56 10.35ZM307.44 5.74L307.44 5.74L307.44 5.74Q307.48 5.98 307.50 6.07L307.50 6.07L307.50 6.07Q307.52 6.16 307.52 6.31L307.52 6.31L307.52 6.31Q307.52 6.78 307.32 7.18L307.32 7.18L307.32 7.18Q307.12 7.57 306.77 7.74L306.77 7.74L306.77 7.74Q306.49 7.36 306.08 7.09L306.08 7.09L306.08 7.09Q305.68 6.82 305.19 6.64L305.19 6.64L305.19 6.64Q304.71 6.47 304.19 6.38L304.19 6.38L304.19 6.38Q303.67 6.30 303.18 6.30L303.18 6.30L303.18 6.30Q302.69 6.30 302.27 6.38L302.27 6.38L302.27 6.38Q301.84 6.45 301.51 6.59L301.51 6.59L301.51 6.59Q301.18 6.72 300.99 6.92L300.99 6.92L300.99 6.92Q300.80 7.11 300.80 7.36L300.80 7.36L300.80 7.36Q300.85 7.67 301.18 7.99L301.18 7.99L301.18 7.99Q301.52 8.30 302.01 8.60L302.01 8.60L302.01 8.60Q302.50 8.90 303.09 9.20L303.09 9.20L303.09 9.20Q303.69 9.49 304.26 9.76L304.26 9.76L304.26 9.76Q304.98 10.09 305.49 10.38L305.49 10.38L305.49 10.38Q306.01 10.67 306.35 11.01L306.35 11.01L306.35 11.01Q306.68 11.35 306.85 11.79L306.85 11.79L306.85 11.79Q307.02 12.22 307.02 12.84L307.02 12.84L307.02 12.84Q307.02 13.55 306.78 14.18L306.78 14.18L306.78 14.18Q306.54 14.80 306.09 15.26L306.09 15.26L306.09 15.26Q305.63 15.72 304.99 15.98L304.99 15.98L304.99 15.98Q304.35 16.24 303.55 16.24L303.55 16.24L303.55 16.24Q302.76 16.24 301.85 16.00L301.85 16.00L301.85 16.00Q300.94 15.76 300.15 15.35L300.15 15.35L300.15 15.35Q299.36 14.94 298.84 14.40L298.84 14.40L298.84 14.40Q298.31 13.86 298.31 13.26L298.31 13.26L298.31 13.26Q298.31 12.98 298.47 12.54L298.47 12.54L298.47 12.54Q298.63 12.11 299.05 11.63L299.05 11.63L299.05 11.63Q299.10 12.05 299.51 12.63L299.51 12.63L299.51 12.63Q299.92 13.20 300.75 13.69L300.75 13.69L300.75 13.69Q301.52 14.14 302.34 14.34L302.34 14.34L302.34 14.34Q303.16 14.55 303.87 14.55L303.87 14.55L303.87 14.55Q304.65 14.55 305.14 14.35L305.14 14.35L305.14 14.35Q305.63 14.15 305.91 13.88L305.91 13.88L305.91 13.88Q306.19 13.61 306.31 13.33L306.31 13.33L306.31 13.33Q306.42 13.05 306.43 12.88L306.43 12.88L306.43 12.88Q306.42 12.60 306.17 12.34L306.17 12.34L306.17 12.34Q305.93 12.08 305.52 11.84L305.52 11.84L305.52 11.84Q305.10 11.59 304.56 11.34L304.56 11.34L304.56 11.34Q304.01 11.09 303.42 10.84L303.42 10.84L303.42 10.84Q302.54 10.44 301.90 10.10L301.90 10.10L301.90 10.10Q301.27 9.76 300.85 9.40L300.85 9.40L300.85 9.40Q300.44 9.04 300.25 8.65L300.25 8.65L300.25 8.65Q300.06 8.26 300.06 7.76L300.06 7.76L300.06 7.76Q300.06 6.97 300.54 6.27L300.54 6.27L300.54 6.27Q301.01 5.57 301.91 5.21L301.91 5.21L301.91 5.21Q302.36 5.01 302.87 4.93L302.87 4.93L302.87 4.93Q303.38 4.84 303.87 4.84L303.87 4.84L303.87 4.84Q304.79 4.84 305.68 5.10L305.68 5.10L305.68 5.10Q306.56 5.35 307.44 5.74ZM320.92 9.21L320.92 9.21L320.92 9.21Q321.38 9.21 321.64 9.46L321.64 9.46L321.64 9.46Q321.90 9.72 321.90 10.16L321.90 10.16L321.90 10.16Q321.90 10.28 321.88 10.39L321.88 10.39L321.88 10.39Q321.86 10.51 321.83 10.60L321.83 10.60L321.83 10.60Q321.65 10.57 321.43 10.55L321.43 10.55L321.43 10.55Q321.20 10.53 320.89 10.53L320.89 10.53L320.89 10.53Q320.29 10.53 319.68 10.63L319.68 10.63L319.68 10.63Q319.06 10.74 318.50 10.81L318.50 10.81L318.50 10.81Q318.18 11.55 317.91 12.24L317.91 12.24L317.91 12.24Q317.65 12.94 317.46 13.51L317.46 13.51L317.46 13.51Q317.27 14.08 317.16 14.50L317.16 14.50L317.16 14.50Q317.06 14.92 317.04 15.13L317.04 15.13L317.04 15.13Q318.18 14.90 319.33 14.73L319.33 14.73L319.33 14.73Q320.49 14.56 321.76 14.48L321.76 14.48L321.76 14.48Q321.92 14.71 322.02 14.99L322.02 14.99L322.02 14.99Q322.13 15.27 322.13 15.60L322.13 15.60L322.13 15.60Q322.13 15.68 322.13 15.78L322.13 15.78L322.13 15.78Q322.13 15.88 322.10 15.97L322.10 15.97L322.10 15.97Q321.71 15.96 321.27 15.95L321.27 15.95L321.27 15.95Q320.84 15.95 320.14 15.95L320.14 15.95L320.14 15.95Q319.68 15.95 319.26 15.97L319.26 15.97L319.26 15.97Q318.85 15.99 318.43 16.03L318.43 16.03L318.43 16.03Q318.01 16.07 317.54 16.14L317.54 16.14L317.54 16.14Q317.07 16.21 316.48 16.31L316.48 16.31L316.48 16.31Q315.84 16.06 315.24 15.08L315.24 15.08L315.24 15.08Q315.48 14.57 315.90 13.54L315.90 13.54L315.90 13.54Q316.33 12.52 316.99 10.79L316.99 10.79L316.99 10.79Q316.36 10.60 316.16 10.09L316.16 10.09L316.16 10.09Q316.23 10.02 316.57 9.92L316.57 9.92L316.57 9.92Q316.90 9.81 317.39 9.70L317.39 9.70L317.39 9.70Q317.60 9.16 317.75 8.75L317.75 8.75L317.75 8.75Q317.90 8.34 318.01 7.99L318.01 7.99L318.01 7.99Q318.12 7.63 318.21 7.29L318.21 7.29L318.21 7.29Q318.30 6.94 318.39 6.54L318.39 6.54L318.39 6.54Q317.90 6.51 317.62 6.27L317.62 6.27L317.62 6.27Q317.34 6.02 317.34 5.63L317.34 5.63L317.34 5.63Q317.34 5.52 317.37 5.36L317.37 5.36L317.37 5.36Q317.41 5.21 317.45 5.10L317.45 5.10L317.45 5.10Q317.73 5.14 317.99 5.15L317.99 5.15L317.99 5.15Q318.25 5.17 318.67 5.17L318.67 5.17L318.67 5.17Q319.55 5.17 320.32 5.12L320.32 5.12L320.32 5.12Q321.09 5.07 321.71 5.01L321.71 5.01L321.71 5.01Q322.34 4.96 322.78 4.91L322.78 4.91L322.78 4.91Q323.23 4.86 323.47 4.86L323.47 4.86L323.47 4.86Q323.79 4.86 324.04 5.19L324.04 5.19L324.04 5.19Q324.30 5.53 324.42 6.15L324.42 6.15L324.42 6.15Q323.99 6.10 323.71 6.09L323.71 6.09L323.71 6.09Q323.44 6.08 323.23 6.08L323.23 6.08L323.23 6.08Q322.46 6.08 321.82 6.15L321.82 6.15L321.82 6.15Q321.19 6.23 320.60 6.31L320.60 6.31L320.60 6.31Q320.52 6.44 320.41 6.64L320.41 6.64L320.41 6.64Q320.31 6.83 320.14 7.18L320.14 7.18L320.14 7.18Q319.97 7.53 319.73 8.06L319.73 8.06L319.73 8.06Q319.48 8.60 319.13 9.39L319.13 9.39L319.13 9.39Q319.66 9.31 320.13 9.26L320.13 9.26L320.13 9.26Q320.60 9.21 320.92 9.21ZM340.19 7.46L340.19 7.46L340.19 7.46Q340.19 8.13 339.88 8.73L339.88 8.73L339.88 8.73Q339.58 9.32 339.05 9.79L339.05 9.79L339.05 9.79Q338.52 10.26 337.81 10.58L337.81 10.58L337.81 10.58Q337.09 10.91 336.25 11.02L336.25 11.02L336.25 11.02Q336.46 11.65 336.76 12.31L336.76 12.31L336.76 12.31Q337.06 12.98 337.41 13.59L337.41 13.59L337.41 13.59Q337.76 14.21 338.14 14.73L338.14 14.73L338.14 14.73Q338.52 15.25 338.88 15.58L338.88 15.58L338.88 15.58Q338.81 15.72 338.68 15.86L338.68 15.86L338.68 15.86Q338.55 16.00 338.37 16.12L338.37 16.12L338.37 16.12Q338.20 16.24 338.01 16.32L338.01 16.32L338.01 16.32Q337.82 16.39 337.65 16.39L337.65 16.39L337.65 16.39Q337.34 16.39 337.06 16.10L337.06 16.10L337.06 16.10Q336.78 15.81 336.50 15.17L336.50 15.17L336.50 15.17Q336.21 14.53 335.89 13.52L335.89 13.52L335.89 13.52Q335.58 12.50 335.20 11.07L335.20 11.07L335.20 11.07Q335.05 11.07 334.89 11.07L334.89 11.07L334.89 11.07Q334.74 11.07 334.66 11.05L334.66 11.05L334.66 11.05Q334.56 10.99 334.45 10.85L334.45 10.85L334.45 10.85Q334.07 11.66 333.77 12.38L333.77 12.38L333.77 12.38Q333.48 13.09 333.25 13.76L333.25 13.76L333.25 13.76Q333.02 14.42 332.84 15.04L332.84 15.04L332.84 15.04Q332.67 15.67 332.54 16.31L332.54 16.31L332.54 16.31Q332.07 16.20 331.72 15.90L331.72 15.90L331.72 15.90Q331.37 15.61 331.06 15.08L331.06 15.08L331.06 15.08Q331.11 14.95 331.18 14.83L331.18 14.83L331.18 14.83Q331.24 14.71 331.34 14.50L331.34 14.50L331.34 14.50Q331.44 14.28 331.58 13.94L331.58 13.94L331.58 13.94Q331.73 13.61 331.98 13.05L331.98 13.05L331.98 13.05Q332.22 12.49 332.56 11.68L332.56 11.68L332.56 11.68Q332.91 10.86 333.40 9.70L333.40 9.70L333.40 9.70Q333.62 9.18 333.78 8.79L333.78 8.79L333.78 8.79Q333.94 8.40 334.07 8.04L334.07 8.04L334.07 8.04Q334.19 7.69 334.30 7.33L334.30 7.33L334.30 7.33Q334.40 6.97 334.52 6.51L334.52 6.51L334.52 6.51Q333.87 6.73 333.32 7.01L333.32 7.01L333.32 7.01Q332.77 7.28 332.40 7.59L332.40 7.59L332.40 7.59Q332.28 7.50 332.14 7.34L332.14 7.34L332.14 7.34Q332.01 7.17 331.90 6.96L331.90 6.96L331.90 6.96Q331.79 6.76 331.70 6.55L331.70 6.55L331.70 6.55Q331.62 6.34 331.60 6.17L331.60 6.17L331.60 6.17Q332.02 5.89 332.63 5.66L332.63 5.66L332.63 5.66Q333.24 5.42 333.93 5.24L333.93 5.24L333.93 5.24Q334.61 5.07 335.33 4.97L335.33 4.97L335.33 4.97Q336.04 4.87 336.66 4.87L336.66 4.87L336.66 4.87Q338.34 4.87 339.26 5.56L339.26 5.56L339.26 5.56Q340.19 6.26 340.19 7.46ZM336.60 6.02L336.77 6.29L336.77 6.29Q336.67 6.41 336.46 6.79L336.46 6.79L336.46 6.79Q336.25 7.17 335.98 7.69L335.98 7.69L335.98 7.69Q335.71 8.22 335.41 8.83L335.41 8.83L335.41 8.83Q335.10 9.45 334.82 10.05L334.82 10.05L334.82 10.05Q335.87 10.05 336.76 9.86L336.76 9.86L336.76 9.86Q337.64 9.66 338.28 9.30L338.28 9.30L338.28 9.30Q338.93 8.95 339.28 8.46L339.28 8.46L339.28 8.46Q339.64 7.98 339.64 7.39L339.64 7.39L339.64 7.39Q339.64 6.69 339.14 6.32L339.14 6.32L339.14 6.32Q338.63 5.95 337.58 5.95L337.58 5.95L337.58 5.95Q337.34 5.95 337.11 5.97L337.11 5.97L337.11 5.97Q336.87 5.99 336.60 6.02L336.60 6.02ZM351.50 16.07L351.50 16.07L351.50 16.07Q351.18 16.24 350.81 16.24L350.81 16.24L350.81 16.24Q350.36 16.18 349.95 16.02L349.95 16.02L349.95 16.02Q349.54 15.85 349.34 15.61L349.34 15.61L349.34 15.61Q349.23 14.92 349.16 14.35L349.16 14.35L349.16 14.35Q349.09 13.78 349.05 13.27L349.05 13.27L349.05 13.27Q349.01 12.75 348.99 12.29L348.99 12.29L348.99 12.29Q348.98 11.82 348.98 11.34L348.98 11.34L348.98 11.34Q348.98 10.71 348.99 10.01L348.99 10.01L348.99 10.01Q349.01 9.31 349.03 8.52L349.03 8.52L349.03 8.52Q349.05 7.73 349.06 6.82L349.06 6.82L349.06 6.82Q349.08 5.92 349.08 4.86L349.08 4.86L349.08 4.86Q349.26 4.86 349.62 4.96L349.62 4.96L349.62 4.96Q349.99 5.07 350.34 5.21L350.34 5.21L350.34 5.21Q350.70 5.35 350.98 5.49L350.98 5.49L350.98 5.49Q351.26 5.64 351.29 5.74L351.29 5.74L351.29 5.74Q351.15 6.13 351.04 6.76L351.04 6.76L351.04 6.76Q350.94 7.39 350.88 8.16L350.88 8.16L350.88 8.16Q350.81 8.93 350.78 9.79L350.78 9.79L350.78 9.79Q350.76 10.64 350.76 11.48L350.76 11.48L350.76 11.48Q350.76 12.11 350.77 12.61L350.77 12.61L350.77 12.61Q350.78 13.10 350.81 13.50L350.81 13.50L350.81 13.50Q350.83 13.90 350.87 14.25L350.87 14.25L350.87 14.25Q350.91 14.59 350.97 14.92L350.97 14.92L350.97 14.92Q351.36 13.73 351.83 12.54L351.83 12.54L351.83 12.54Q352.30 11.35 352.79 10.25L352.79 10.25L352.79 10.25Q353.29 9.16 353.78 8.20L353.78 8.20L353.78 8.20Q354.27 7.25 354.71 6.54L354.71 6.54L354.71 6.54Q355.15 5.84 355.50 5.43L355.50 5.43L355.50 5.43Q355.85 5.01 356.08 4.98L356.08 4.98L356.08 4.98Q356.23 5.01 356.41 5.10L356.41 5.10L356.41 5.10Q356.58 5.19 356.73 5.32L356.73 5.32L356.73 5.32Q356.89 5.45 357.01 5.60L357.01 5.60L357.01 5.60Q357.14 5.75 357.21 5.91L357.21 5.91L357.21 5.91Q356.69 6.09 356.10 6.76L356.10 6.76L356.10 6.76Q355.50 7.43 354.90 8.38L354.90 8.38L354.90 8.38Q354.30 9.32 353.73 10.44L353.73 10.44L353.73 10.44Q353.16 11.55 352.71 12.61L352.71 12.61L352.71 12.61Q352.25 13.68 351.93 14.60L351.93 14.60L351.93 14.60Q351.61 15.53 351.50 16.07ZM363.10 14.38L363.10 14.38L363.10 14.38Q363.10 13.87 363.26 13.07L363.26 13.07L363.26 13.07Q363.43 12.26 363.69 11.33L363.69 11.33L363.69 11.33Q363.94 10.40 364.28 9.43L364.28 9.43L364.28 9.43Q364.62 8.46 364.97 7.60L364.97 7.60L364.97 7.60Q365.32 6.75 365.65 6.10L365.65 6.10L365.65 6.10Q365.99 5.46 366.25 5.18L366.25 5.18L366.25 5.18Q366.39 5.19 366.63 5.29L366.63 5.29L366.63 5.29Q366.86 5.38 367.09 5.50L367.09 5.50L367.09 5.50Q367.33 5.63 367.53 5.78L367.53 5.78L367.53 5.78Q367.72 5.92 367.78 6.05L367.78 6.05L367.78 6.05Q367.37 6.41 366.97 7.15L366.97 7.15L366.97 7.15Q366.58 7.88 366.20 8.82L366.20 8.82L366.20 8.82Q365.83 9.76 365.51 10.80L365.51 10.80L365.51 10.80Q365.19 11.84 364.95 12.82L364.95 12.82L364.95 12.82Q364.71 13.80 364.58 14.64L364.58 14.64L364.58 14.64Q364.45 15.48 364.45 16.00L364.45 16.00L364.45 16.00Q364.45 16.24 364.49 16.30L364.49 16.30L364.49 16.30Q364.18 16.28 364.04 16.19L364.04 16.19L364.04 16.19Q363.90 16.10 363.82 16.00L363.82 16.00L363.82 16.00Q363.75 15.89 363.69 15.79L363.69 15.79L363.69 15.79Q363.62 15.68 363.50 15.62L363.50 15.62L363.50 15.62Q363.40 15.58 363.33 15.43L363.33 15.43L363.33 15.43Q363.26 15.27 363.21 15.09L363.21 15.09L363.21 15.09Q363.16 14.90 363.13 14.70L363.13 14.70L363.13 14.70Q363.10 14.50 363.10 14.38ZM374.67 12.43L374.67 12.43L374.67 12.43Q374.67 11.45 374.90 10.51L374.90 10.51L374.90 10.51Q375.13 9.56 375.55 8.71L375.55 8.71L375.55 8.71Q375.97 7.87 376.55 7.16L376.55 7.16L376.55 7.16Q377.13 6.45 377.82 5.94L377.82 5.94L377.82 5.94Q378.52 5.42 379.30 5.13L379.30 5.13L379.30 5.13Q380.09 4.84 380.91 4.84L380.91 4.84L380.91 4.84Q381.88 4.84 382.42 5.25L382.42 5.25L382.42 5.25Q382.96 5.66 382.96 6.38L382.96 6.38L382.96 6.38Q382.96 6.66 382.88 6.96L382.88 6.96L382.88 6.96Q382.80 7.25 382.66 7.54L382.66 7.54L382.66 7.54Q382.51 7.83 382.31 8.09L382.31 8.09L382.31 8.09Q382.12 8.36 381.88 8.55L381.88 8.55L381.88 8.55Q381.51 8.50 381.25 8.22L381.25 8.22L381.25 8.22Q380.98 7.95 380.91 7.59L380.91 7.59L380.91 7.59Q381.40 7.18 381.69 6.74L381.69 6.74L381.69 6.74Q381.98 6.30 381.98 5.94L381.98 5.94L381.98 5.94Q381.98 5.32 381.21 5.32L381.21 5.32L381.21 5.32Q380.88 5.32 380.54 5.45L380.54 5.45L380.54 5.45Q380.20 5.59 379.85 5.82L379.85 5.82L379.85 5.82Q379.50 6.06 379.17 6.40L379.17 6.40L379.17 6.40Q378.84 6.73 378.56 7.14L378.56 7.14L378.56 7.14Q376.61 9.94 376.61 12.87L376.61 12.87L376.61 12.87Q376.61 13.90 376.94 14.53L376.94 14.53L376.94 14.53Q377.26 15.16 377.79 15.27L377.79 15.27L377.79 15.27Q378.39 15.13 379.32 14.50L379.32 14.50L379.32 14.50Q380.24 13.87 381.33 12.87L381.33 12.87L381.33 12.87Q381.47 13.01 381.50 13.16L381.50 13.16L381.50 13.16Q381.09 13.69 380.66 14.18L380.66 14.18L380.66 14.18Q380.23 14.67 379.80 15.08L379.80 15.08L379.80 15.08Q379.37 15.48 378.96 15.79L378.96 15.79L378.96 15.79Q378.55 16.10 378.20 16.27L378.20 16.27L378.20 16.27Q376.46 16.24 375.56 15.27L375.56 15.27L375.56 15.27Q374.67 14.31 374.67 12.43ZM395.26 9.21L395.26 9.21L395.26 9.21Q395.72 9.21 395.98 9.46L395.98 9.46L395.98 9.46Q396.24 9.72 396.24 10.16L396.24 10.16L396.24 10.16Q396.24 10.28 396.22 10.39L396.22 10.39L396.22 10.39Q396.20 10.51 396.17 10.60L396.17 10.60L396.17 10.60Q395.99 10.57 395.77 10.55L395.77 10.55L395.77 10.55Q395.54 10.53 395.23 10.53L395.23 10.53L395.23 10.53Q394.63 10.53 394.02 10.63L394.02 10.63L394.02 10.63Q393.40 10.74 392.84 10.81L392.84 10.81L392.84 10.81Q392.52 11.55 392.25 12.24L392.25 12.24L392.25 12.24Q391.99 12.94 391.80 13.51L391.80 13.51L391.80 13.51Q391.61 14.08 391.50 14.50L391.50 14.50L391.50 14.50Q391.40 14.92 391.38 15.13L391.38 15.13L391.38 15.13Q392.52 14.90 393.67 14.73L393.67 14.73L393.67 14.73Q394.83 14.56 396.10 14.48L396.10 14.48L396.10 14.48Q396.26 14.71 396.36 14.99L396.36 14.99L396.36 14.99Q396.47 15.27 396.47 15.60L396.47 15.60L396.47 15.60Q396.47 15.68 396.47 15.78L396.47 15.78L396.47 15.78Q396.47 15.88 396.44 15.97L396.44 15.97L396.44 15.97Q396.05 15.96 395.61 15.95L395.61 15.95L395.61 15.95Q395.18 15.95 394.48 15.95L394.48 15.95L394.48 15.95Q394.02 15.95 393.60 15.97L393.60 15.97L393.60 15.97Q393.19 15.99 392.77 16.03L392.77 16.03L392.77 16.03Q392.35 16.07 391.88 16.14L391.88 16.14L391.88 16.14Q391.41 16.21 390.82 16.31L390.82 16.31L390.82 16.31Q390.18 16.06 389.58 15.08L389.58 15.08L389.58 15.08Q389.82 14.57 390.24 13.54L390.24 13.54L390.24 13.54Q390.67 12.52 391.33 10.79L391.33 10.79L391.33 10.79Q390.70 10.60 390.50 10.09L390.50 10.09L390.50 10.09Q390.57 10.02 390.91 9.92L390.91 9.92L390.91 9.92Q391.24 9.81 391.73 9.70L391.73 9.70L391.73 9.70Q391.94 9.16 392.09 8.75L392.09 8.75L392.09 8.75Q392.24 8.34 392.35 7.99L392.35 7.99L392.35 7.99Q392.46 7.63 392.55 7.29L392.55 7.29L392.55 7.29Q392.64 6.94 392.73 6.54L392.73 6.54L392.73 6.54Q392.24 6.51 391.96 6.27L391.96 6.27L391.96 6.27Q391.68 6.02 391.68 5.63L391.68 5.63L391.68 5.63Q391.68 5.52 391.71 5.36L391.71 5.36L391.71 5.36Q391.75 5.21 391.79 5.10L391.79 5.10L391.79 5.10Q392.07 5.14 392.33 5.15L392.33 5.15L392.33 5.15Q392.59 5.17 393.01 5.17L393.01 5.17L393.01 5.17Q393.89 5.17 394.66 5.12L394.66 5.12L394.66 5.12Q395.43 5.07 396.05 5.01L396.05 5.01L396.05 5.01Q396.68 4.96 397.12 4.91L397.12 4.91L397.12 4.91Q397.57 4.86 397.81 4.86L397.81 4.86L397.81 4.86Q398.13 4.86 398.38 5.19L398.38 5.19L398.38 5.19Q398.64 5.53 398.76 6.15L398.76 6.15L398.76 6.15Q398.33 6.10 398.06 6.09L398.06 6.09L398.06 6.09Q397.78 6.08 397.57 6.08L397.57 6.08L397.57 6.08Q396.80 6.08 396.17 6.15L396.17 6.15L396.17 6.15Q395.53 6.23 394.94 6.31L394.94 6.31L394.94 6.31Q394.86 6.44 394.75 6.64L394.75 6.64L394.75 6.64Q394.65 6.83 394.48 7.18L394.48 7.18L394.48 7.18Q394.31 7.53 394.07 8.06L394.07 8.06L394.07 8.06Q393.82 8.60 393.47 9.39L393.47 9.39L393.47 9.39Q394.00 9.31 394.47 9.26L394.47 9.26L394.47 9.26Q394.94 9.21 395.26 9.21ZM414.13 5.74L414.13 5.74L414.13 5.74Q414.18 5.98 414.20 6.07L414.20 6.07L414.20 6.07Q414.22 6.16 414.22 6.31L414.22 6.31L414.22 6.31Q414.22 6.78 414.02 7.18L414.02 7.18L414.02 7.18Q413.81 7.57 413.46 7.74L413.46 7.74L413.46 7.74Q413.18 7.36 412.78 7.09L412.78 7.09L412.78 7.09Q412.37 6.82 411.89 6.64L411.89 6.64L411.89 6.64Q411.40 6.47 410.89 6.38L410.89 6.38L410.89 6.38Q410.37 6.30 409.88 6.30L409.88 6.30L409.88 6.30Q409.39 6.30 408.96 6.38L408.96 6.38L408.96 6.38Q408.53 6.45 408.21 6.59L408.21 6.59L408.21 6.59Q407.88 6.72 407.69 6.92L407.69 6.92L407.69 6.92Q407.50 7.11 407.50 7.36L407.50 7.36L407.50 7.36Q407.54 7.67 407.88 7.99L407.88 7.99L407.88 7.99Q408.21 8.30 408.70 8.60L408.70 8.60L408.70 8.60Q409.19 8.90 409.79 9.20L409.79 9.20L409.79 9.20Q410.38 9.49 410.96 9.76L410.96 9.76L410.96 9.76Q411.67 10.09 412.19 10.38L412.19 10.38L412.19 10.38Q412.71 10.67 413.04 11.01L413.04 11.01L413.04 11.01Q413.38 11.35 413.55 11.79L413.55 11.79L413.55 11.79Q413.71 12.22 413.71 12.84L413.71 12.84L413.71 12.84Q413.71 13.55 413.48 14.18L413.48 14.18L413.48 14.18Q413.24 14.80 412.78 15.26L412.78 15.26L412.78 15.26Q412.33 15.72 411.68 15.98L411.68 15.98L411.68 15.98Q411.04 16.24 410.24 16.24L410.24 16.24L410.24 16.24Q409.46 16.24 408.55 16.00L408.55 16.00L408.55 16.00Q407.64 15.76 406.85 15.35L406.85 15.35L406.85 15.35Q406.06 14.94 405.53 14.40L405.53 14.40L405.53 14.40Q405.01 13.86 405.01 13.26L405.01 13.26L405.01 13.26Q405.01 12.98 405.17 12.54L405.17 12.54L405.17 12.54Q405.33 12.11 405.75 11.63L405.75 11.63L405.75 11.63Q405.79 12.05 406.20 12.63L406.20 12.63L406.20 12.63Q406.62 13.20 407.44 13.69L407.44 13.69L407.44 13.69Q408.21 14.14 409.03 14.34L409.03 14.34L409.03 14.34Q409.85 14.55 410.56 14.55L410.56 14.55L410.56 14.55Q411.35 14.55 411.84 14.35L411.84 14.35L411.84 14.35Q412.33 14.15 412.61 13.88L412.61 13.88L412.61 13.88Q412.89 13.61 413.00 13.33L413.00 13.33L413.00 13.33Q413.11 13.05 413.13 12.88L413.13 12.88L413.13 12.88Q413.11 12.60 412.87 12.34L412.87 12.34L412.87 12.34Q412.62 12.08 412.21 11.84L412.21 11.84L412.21 11.84Q411.80 11.59 411.25 11.34L411.25 11.34L411.25 11.34Q410.70 11.09 410.12 10.84L410.12 10.84L410.12 10.84Q409.23 10.44 408.60 10.10L408.60 10.10L408.60 10.10Q407.96 9.76 407.55 9.40L407.55 9.40L407.55 9.40Q407.13 9.04 406.95 8.65L406.95 8.65L406.95 8.65Q406.76 8.26 406.76 7.76L406.76 7.76L406.76 7.76Q406.76 6.97 407.23 6.27L407.23 6.27L407.23 6.27Q407.71 5.57 408.60 5.21L408.60 5.21L408.60 5.21Q409.05 5.01 409.56 4.93L409.56 4.93L409.56 4.93Q410.07 4.84 410.56 4.84L410.56 4.84L410.56 4.84Q411.49 4.84 412.37 5.10L412.37 5.10L412.37 5.10Q413.25 5.35 414.13 5.74ZM432.59 14.38L432.59 14.38L432.59 14.38Q432.59 13.87 432.75 13.07L432.75 13.07L432.75 13.07Q432.91 12.26 433.17 11.33L433.17 11.33L433.17 11.33Q433.43 10.40 433.76 9.43L433.76 9.43L433.76 9.43Q434.10 8.46 434.45 7.60L434.45 7.60L434.45 7.60Q434.80 6.75 435.13 6.10L435.13 6.10L435.13 6.10Q435.47 5.46 435.74 5.18L435.74 5.18L435.74 5.18Q435.88 5.19 436.11 5.29L436.11 5.29L436.11 5.29Q436.34 5.38 436.58 5.50L436.58 5.50L436.58 5.50Q436.81 5.63 437.01 5.78L437.01 5.78L437.01 5.78Q437.21 5.92 437.26 6.05L437.26 6.05L437.26 6.05Q436.86 6.41 436.46 7.15L436.46 7.15L436.46 7.15Q436.06 7.88 435.69 8.82L435.69 8.82L435.69 8.82Q435.32 9.76 434.99 10.80L434.99 10.80L434.99 10.80Q434.67 11.84 434.43 12.82L434.43 12.82L434.43 12.82Q434.20 13.80 434.06 14.64L434.06 14.64L434.06 14.64Q433.93 15.48 433.93 16.00L433.93 16.00L433.93 16.00Q433.93 16.24 433.97 16.30L433.97 16.30L433.97 16.30Q433.66 16.28 433.52 16.19L433.52 16.19L433.52 16.19Q433.38 16.10 433.31 16.00L433.31 16.00L433.31 16.00Q433.23 15.89 433.17 15.79L433.17 15.79L433.17 15.79Q433.10 15.68 432.98 15.62L432.98 15.62L432.98 15.62Q432.88 15.58 432.81 15.43L432.81 15.43L432.81 15.43Q432.74 15.27 432.69 15.09L432.69 15.09L432.69 15.09Q432.64 14.90 432.61 14.70L432.61 14.70L432.61 14.70Q432.59 14.50 432.59 14.38ZM444.82 16.24L444.82 16.24L444.82 16.24Q444.02 16.00 443.74 15.79L443.74 15.79L443.74 15.79Q443.46 15.57 443.46 15.19L443.46 15.19L443.46 15.19Q443.46 14.77 443.66 14.01L443.66 14.01L443.66 14.01Q443.86 13.24 444.17 12.31L444.17 12.31L444.17 12.31Q444.49 11.37 444.89 10.35L444.89 10.35L444.89 10.35Q445.30 9.32 445.72 8.39L445.72 8.39L445.72 8.39Q446.14 7.45 446.54 6.67L446.54 6.67L446.54 6.67Q446.94 5.89 447.24 5.46L447.24 5.46L447.15 4.87L447.15 4.87Q447.34 4.87 447.69 4.97L447.69 4.97L447.69 4.97Q448.04 5.07 448.40 5.21L448.40 5.21L448.40 5.21Q448.76 5.35 449.03 5.49L449.03 5.49L449.03 5.49Q449.30 5.64 449.33 5.74L449.33 5.74L449.33 5.74Q449.26 6.08 449.22 6.76L449.22 6.76L449.22 6.76Q449.18 7.43 449.18 8.20L449.18 8.20L449.18 8.20Q449.18 9.73 449.30 11.19L449.30 11.19L449.30 11.19Q449.41 12.66 449.85 14.17L449.85 14.17L449.85 14.17Q450.07 13.05 450.33 11.94L450.33 11.94L450.33 11.94Q450.59 10.82 450.87 9.81L450.87 9.81L450.87 9.81Q451.15 8.79 451.43 7.92L451.43 7.92L451.43 7.92Q451.71 7.06 451.97 6.40L451.97 6.40L451.97 6.40Q452.23 5.75 452.45 5.38L452.45 5.38L452.45 5.38Q452.68 5.01 452.86 4.98L452.86 4.98L452.86 4.98Q453.01 5.01 453.19 5.10L453.19 5.10L453.19 5.10Q453.38 5.19 453.54 5.32L453.54 5.32L453.54 5.32Q453.71 5.45 453.85 5.60L453.85 5.60L453.85 5.60Q453.99 5.75 454.08 5.91L454.08 5.91L454.08 5.91Q453.63 6.09 453.19 6.76L453.19 6.76L453.19 6.76Q452.75 7.43 452.35 8.39L452.35 8.39L452.35 8.39Q451.95 9.35 451.61 10.47L451.61 10.47L451.61 10.47Q451.26 11.59 451.00 12.68L451.00 12.68L451.00 12.68Q450.74 13.76 450.60 14.69L450.60 14.69L450.60 14.69Q450.45 15.61 450.44 16.17L450.44 16.17L450.44 16.17Q450.44 16.20 450.45 16.21L450.45 16.21L450.45 16.21Q450.41 16.23 450.36 16.23L450.36 16.23L450.36 16.23Q450.31 16.23 450.27 16.23L450.27 16.23L450.27 16.23Q449.62 16.23 449.13 16.07L449.13 16.07L449.13 16.07Q448.63 15.90 448.48 15.61L448.48 15.61L448.48 15.61Q448.18 14.43 447.99 13.34L447.99 13.34L447.99 13.34Q447.79 12.25 447.66 11.16L447.66 11.16L447.66 11.16Q447.52 10.07 447.45 8.95L447.45 8.95L447.45 8.95Q447.37 7.84 447.33 6.62L447.33 6.62L447.33 6.62Q447.06 7.04 446.77 7.72L446.77 7.72L446.77 7.72Q446.47 8.40 446.19 9.21L446.19 9.21L446.19 9.21Q445.91 10.02 445.66 10.92L445.66 10.92L445.66 10.92Q445.40 11.82 445.20 12.67L445.20 12.67L445.20 12.67Q445.00 13.52 444.89 14.29L444.89 14.29L444.89 14.29Q444.78 15.05 444.78 15.61L444.78 15.61L444.78 15.61Q444.78 15.90 444.79 16.03L444.79 16.03L444.79 16.03Q444.79 16.16 444.82 16.24ZM473.24 6.69L473.24 6.69L473.24 6.69Q472.68 6.69 472.38 6.38L472.38 6.38L472.38 6.38Q472.08 6.06 472.08 5.61L472.08 5.61L472.08 5.61Q472.08 5.50 472.12 5.35L472.12 5.35L472.12 5.35Q472.15 5.19 472.21 5.08L472.21 5.08L472.21 5.08Q472.39 5.17 472.75 5.20L472.75 5.20L472.75 5.20Q473.10 5.24 473.58 5.24L473.58 5.24L473.58 5.24Q474.29 5.24 475.20 5.17L475.20 5.17L475.20 5.17Q476.10 5.11 476.92 5.04L476.92 5.04L476.92 5.04Q477.75 4.97 478.38 4.91L478.38 4.91L478.38 4.91Q479.01 4.84 479.19 4.84L479.19 4.84L479.19 4.84Q479.71 4.84 479.94 5.23L479.94 5.23L479.94 5.23Q480.17 5.61 480.28 6.26L480.28 6.26L480.28 6.26Q479.92 6.23 479.56 6.21L479.56 6.21L479.56 6.21Q479.21 6.19 478.95 6.19L478.95 6.19L478.95 6.19Q478.51 6.19 478.05 6.22L478.05 6.22L478.05 6.22Q477.60 6.24 477.13 6.30L477.13 6.30L477.13 6.30Q476.94 6.71 476.70 7.26L476.70 7.26L476.70 7.26Q476.46 7.81 476.23 8.41L476.23 8.41L476.23 8.41Q476.00 9.02 475.79 9.61L475.79 9.61L475.79 9.61Q475.58 10.21 475.43 10.68L475.43 10.68L475.43 10.68Q475.12 11.61 474.89 12.39L474.89 12.39L474.89 12.39Q474.66 13.17 474.48 13.85L474.48 13.85L474.48 13.85Q474.31 14.53 474.18 15.15L474.18 15.15L474.18 15.15Q474.05 15.76 473.96 16.35L473.96 16.35L473.96 16.35Q473.02 16.21 472.39 15.18L472.39 15.18L472.39 15.18Q472.50 14.74 472.66 14.23L472.66 14.23L472.66 14.23Q472.82 13.72 473.04 13.07L473.04 13.07L473.04 13.07Q473.26 12.42 473.55 11.59L473.55 11.59L473.55 11.59Q473.84 10.77 474.22 9.72L474.22 9.72L474.22 9.72Q474.36 9.32 474.52 8.90L474.52 8.90L474.52 8.90Q474.67 8.47 474.82 8.05L474.82 8.05L474.82 8.05Q474.96 7.63 475.08 7.24L475.08 7.24L475.08 7.24Q475.20 6.85 475.29 6.52L475.29 6.52L475.29 6.52Q474.70 6.59 474.17 6.64L474.17 6.64L474.17 6.64Q473.65 6.69 473.24 6.69ZM492.16 4.98L492.16 4.98L492.16 4.98Q492.42 5.10 492.70 5.27L492.70 5.27L492.70 5.27Q492.98 5.45 493.22 5.63L493.22 5.63L493.22 5.63Q493.46 5.81 493.62 5.98L493.62 5.98L493.62 5.98Q493.78 6.16 493.79 6.27L493.79 6.27L493.79 6.27Q493.56 6.22 493.32 6.20L493.32 6.20L493.32 6.20Q493.08 6.17 492.88 6.17L492.88 6.17L492.88 6.17Q492.25 6.17 491.63 6.48L491.63 6.48L491.63 6.48Q491.01 6.79 490.45 7.32L490.45 7.32L490.45 7.32Q489.89 7.85 489.41 8.57L489.41 8.57L489.41 8.57Q488.94 9.28 488.59 10.09L488.59 10.09L488.59 10.09Q488.25 10.91 488.05 11.77L488.05 11.77L488.05 11.77Q487.86 12.64 487.86 13.48L487.86 13.48L487.86 13.48Q487.86 14.57 488.22 15.11L488.22 15.11L488.22 15.11Q488.59 15.64 489.29 15.64L489.29 15.64L489.29 15.64Q489.62 15.64 490.01 15.51L490.01 15.51L490.01 15.51Q490.41 15.37 490.81 15.13L490.81 15.13L490.81 15.13Q491.22 14.90 491.61 14.56L491.61 14.56L491.61 14.56Q492.00 14.22 492.34 13.82L492.34 13.82L492.34 13.82Q492.83 13.23 493.22 12.48L493.22 12.48L493.22 12.48Q493.61 11.73 493.88 10.89L493.88 10.89L493.88 10.89Q494.16 10.05 494.31 9.16L494.31 9.16L494.31 9.16Q494.45 8.27 494.45 7.42L494.45 7.42L494.45 7.42Q494.45 7.08 494.44 6.85L494.44 6.85L494.44 6.85Q494.42 6.62 494.40 6.46L494.40 6.46L494.40 6.46Q494.38 6.30 494.37 6.20L494.37 6.20L494.37 6.20Q494.35 6.10 494.34 6.03L494.34 6.03L494.34 6.03Q494.51 6.12 494.71 6.24L494.71 6.24L494.71 6.24Q494.91 6.36 495.09 6.59L495.09 6.59L495.09 6.59Q495.26 6.82 495.38 7.20L495.38 7.20L495.38 7.20Q495.50 7.57 495.50 8.18L495.50 8.18L495.50 8.18Q495.50 9.16 495.27 10.10L495.27 10.10L495.27 10.10Q495.04 11.05 494.63 11.90L494.63 11.90L494.63 11.90Q494.21 12.75 493.65 13.50L493.65 13.50L493.65 13.50Q493.09 14.24 492.45 14.80L492.45 14.80L492.45 14.80Q491.61 15.54 490.66 15.95L490.66 15.95L490.66 15.95Q489.71 16.35 488.82 16.35L488.82 16.35L488.82 16.35Q487.54 16.35 486.86 15.53L486.86 15.53L486.86 15.53Q486.18 14.71 486.18 13.12L486.18 13.12L486.18 13.12Q486.18 12.26 486.37 11.31L486.37 11.31L486.37 11.31Q486.56 10.36 486.90 9.44L486.90 9.44L486.90 9.44Q487.24 8.51 487.72 7.68L487.72 7.68L487.72 7.68Q488.19 6.85 488.76 6.21L488.76 6.21L488.76 6.21Q489.33 5.57 489.98 5.19L489.98 5.19L489.98 5.19Q490.63 4.82 491.32 4.82L491.32 4.82L491.32 4.82Q491.54 4.82 491.74 4.85L491.74 4.85L491.74 4.85Q491.93 4.89 492.16 4.98ZM504.43 15.61L504.43 15.61L504.43 15.61Q504.36 15.04 504.33 14.36L504.33 14.36L504.33 14.36Q504.29 13.68 504.29 13.09L504.29 13.09L504.29 13.09Q504.29 12.15 504.36 11.29L504.36 11.29L504.36 11.29Q504.42 10.43 504.51 9.48L504.51 9.48L504.51 9.48Q504.60 8.54 504.71 7.43L504.71 7.43L504.71 7.43Q504.83 6.31 504.91 4.86L504.91 4.86L504.91 4.86Q505.09 4.86 505.44 4.96L505.44 4.96L505.44 4.96Q505.78 5.07 506.13 5.21L506.13 5.21L506.13 5.21Q506.48 5.35 506.74 5.49L506.74 5.49L506.74 5.49Q507.01 5.64 507.05 5.74L507.05 5.74L507.05 5.74Q506.81 6.29 506.63 7.18L506.63 7.18L506.63 7.18Q506.44 8.06 506.31 9.11L506.31 9.11L506.31 9.11Q506.18 10.16 506.11 11.27L506.11 11.27L506.11 11.27Q506.04 12.38 506.04 13.34L506.04 13.34L506.04 13.34Q506.04 13.79 506.06 14.22L506.06 14.22L506.06 14.22Q506.07 14.66 506.10 15.02L506.10 15.02L506.10 15.02Q506.39 14.59 506.78 13.78L506.78 13.78L506.78 13.78Q507.16 12.98 507.58 11.98L507.58 11.98L507.58 11.98Q507.99 10.99 508.40 9.91L508.40 9.91L508.40 9.91Q508.82 8.82 509.17 7.83L509.17 7.83L509.17 7.83Q509.52 6.85 509.76 6.05L509.76 6.05L509.76 6.05Q510.01 5.26 510.10 4.86L510.10 4.86L510.10 4.86Q510.29 4.86 510.64 4.96L510.64 4.96L510.64 4.96Q511 5.07 511.34 5.21L511.34 5.21L511.34 5.21Q511.69 5.35 511.95 5.49L511.95 5.49L511.95 5.49Q512.22 5.64 512.25 5.74L512.25 5.74L512.25 5.74Q512.01 6.29 511.82 7.18L511.82 7.18L511.82 7.18Q511.63 8.06 511.50 9.11L511.50 9.11L511.50 9.11Q511.38 10.16 511.31 11.27L511.31 11.27L511.31 11.27Q511.24 12.38 511.24 13.34L511.24 13.34L511.24 13.34Q511.24 13.75 511.25 14.15L511.25 14.15L511.25 14.15Q511.25 14.55 511.28 14.87L511.28 14.87L511.28 14.87Q511.73 13.71 512.21 12.56L512.21 12.56L512.21 12.56Q512.69 11.42 513.17 10.38L513.17 10.38L513.17 10.38Q513.65 9.34 514.09 8.43L514.09 8.43L514.09 8.43Q514.54 7.53 514.92 6.82L514.92 6.82L514.92 6.82Q515.30 6.12 515.58 5.66L515.58 5.66L515.58 5.66Q515.86 5.19 516.01 5.04L516.01 5.04L516.01 5.04Q516.33 5.08 516.68 5.27L516.68 5.27L516.68 5.27Q517.02 5.46 517.29 5.75L517.29 5.75L517.29 5.75Q516.88 6.08 516.36 6.81L516.36 6.81L516.36 6.81Q515.84 7.55 515.30 8.51L515.30 8.51L515.30 8.51Q514.75 9.48 514.20 10.57L514.20 10.57L514.20 10.57Q513.65 11.66 513.17 12.70L513.17 12.70L513.17 12.70Q512.69 13.73 512.32 14.63L512.32 14.63L512.32 14.63Q511.95 15.53 511.76 16.07L511.76 16.07L511.76 16.07Q511.39 16.24 511.04 16.24L511.04 16.24L511.04 16.24Q510.59 16.18 510.19 16.02L510.19 16.02L510.19 16.02Q509.80 15.85 509.63 15.61L509.63 15.61L509.63 15.61Q509.59 15.39 509.56 15.09L509.56 15.09L509.56 15.09Q509.53 14.78 509.52 14.49L509.52 14.49L509.52 14.49Q509.50 14.20 509.50 13.92L509.50 13.92L509.50 13.92Q509.49 13.65 509.49 13.45L509.49 13.45L509.49 13.45Q509.49 12.21 509.59 10.91L509.59 10.91L509.59 10.91Q509.68 9.62 509.82 8.13L509.82 8.13L509.82 8.13Q509.50 9.09 509.11 10.18L509.11 10.18L509.11 10.18Q508.72 11.27 508.29 12.34L508.29 12.34L508.29 12.34Q507.86 13.41 507.42 14.38L507.42 14.38L507.42 14.38Q506.98 15.36 506.56 16.07L506.56 16.07L506.56 16.07Q506.20 16.24 505.85 16.24L505.85 16.24L505.85 16.24Q505.40 16.18 505.00 16.02L505.00 16.02L505.00 16.02Q504.60 15.85 504.43 15.61ZM524.23 16.24L524.23 16.24L524.23 16.24Q523.43 16.00 523.15 15.79L523.15 15.79L523.15 15.79Q522.87 15.57 522.87 15.19L522.87 15.19L522.87 15.19Q522.87 14.77 523.07 14.01L523.07 14.01L523.07 14.01Q523.26 13.24 523.58 12.31L523.58 12.31L523.58 12.31Q523.89 11.37 524.30 10.35L524.30 10.35L524.30 10.35Q524.71 9.32 525.13 8.39L525.13 8.39L525.13 8.39Q525.55 7.45 525.95 6.67L525.95 6.67L525.95 6.67Q526.34 5.89 526.65 5.46L526.65 5.46L526.55 4.87L526.55 4.87Q526.75 4.87 527.10 4.97L527.10 4.97L527.10 4.97Q527.45 5.07 527.81 5.21L527.81 5.21L527.81 5.21Q528.16 5.35 528.44 5.49L528.44 5.49L528.44 5.49Q528.71 5.64 528.74 5.74L528.74 5.74L528.74 5.74Q528.67 6.08 528.63 6.76L528.63 6.76L528.63 6.76Q528.58 7.43 528.58 8.20L528.58 8.20L528.58 8.20Q528.58 9.73 528.70 11.19L528.70 11.19L528.70 11.19Q528.82 12.66 529.26 14.17L529.26 14.17L529.26 14.17Q529.48 13.05 529.74 11.94L529.74 11.94L529.74 11.94Q530.00 10.82 530.28 9.81L530.28 9.81L530.28 9.81Q530.56 8.79 530.84 7.92L530.84 7.92L530.84 7.92Q531.12 7.06 531.38 6.40L531.38 6.40L531.38 6.40Q531.64 5.75 531.86 5.38L531.86 5.38L531.86 5.38Q532.08 5.01 532.27 4.98L532.27 4.98L532.27 4.98Q532.42 5.01 532.60 5.10L532.60 5.10L532.60 5.10Q532.78 5.19 532.95 5.32L532.95 5.32L532.95 5.32Q533.12 5.45 533.26 5.60L533.26 5.60L533.26 5.60Q533.40 5.75 533.48 5.91L533.48 5.91L533.48 5.91Q533.04 6.09 532.60 6.76L532.60 6.76L532.60 6.76Q532.15 7.43 531.75 8.39L531.75 8.39L531.75 8.39Q531.36 9.35 531.01 10.47L531.01 10.47L531.01 10.47Q530.67 11.59 530.41 12.68L530.41 12.68L530.41 12.68Q530.15 13.76 530.00 14.69L530.00 14.69L530.00 14.69Q529.86 15.61 529.84 16.17L529.84 16.17L529.84 16.17Q529.84 16.20 529.86 16.21L529.86 16.21L529.86 16.21Q529.82 16.23 529.77 16.23L529.77 16.23L529.77 16.23Q529.72 16.23 529.68 16.23L529.68 16.23L529.68 16.23Q529.03 16.23 528.54 16.07L528.54 16.07L528.54 16.07Q528.04 15.90 527.88 15.61L527.88 15.61L527.88 15.61Q527.59 14.43 527.39 13.34L527.39 13.34L527.39 13.34Q527.20 12.25 527.07 11.16L527.07 11.16L527.07 11.16Q526.93 10.07 526.86 8.95L526.86 8.95L526.86 8.95Q526.78 7.84 526.74 6.62L526.74 6.62L526.74 6.62Q526.47 7.04 526.18 7.72L526.18 7.72L526.18 7.72Q525.88 8.40 525.60 9.21L525.60 9.21L525.60 9.21Q525.32 10.02 525.06 10.92L525.06 10.92L525.06 10.92Q524.80 11.82 524.61 12.67L524.61 12.67L524.61 12.67Q524.41 13.52 524.30 14.29L524.30 14.29L524.30 14.29Q524.19 15.05 524.19 15.61L524.19 15.61L524.19 15.61Q524.19 15.90 524.20 16.03L524.20 16.03L524.20 16.03Q524.20 16.16 524.23 16.24Z"></path></g></svg>