<svg data-v-fde0c5aa="" xmlns="http://www.w3.org/2000/svg" viewBox="0 0 300 300" class="icon"><!----><defs data-v-fde0c5aa=""><!----></defs><rect data-v-fde0c5aa="" fill="#BC577D" x="0" y="0" width="300px" height="300px" class="logo-background-square"></rect><!----><defs data-v-fde0c5aa=""><!----></defs><g data-v-fde0c5aa="" id="c754b872-f352-4eaf-acb7-40851d7c8b0b" fill="#4B2154" stroke="none" transform="matrix(2.4487145748154133,0,0,2.4487145748154133,27.563892944485225,27.564768673059547)"><path d="M45.098 92.882h-.004l.002-3.772h.002c2.189 0 3.46-2.796 4.143-5.142 2.6-8.951.309-20.39-1.213-22.246a2.577 2.577 0 0 0-.162.181c-4.817 5.795-11.067 9.42-15.548 9.024-1.933-.172-3.477-1.109-4.346-2.64-1.096-1.93-1.66-4.723-2.205-7.426-.383-1.903-1.279-6.359-2.191-6.608-1.649-.45-3.426-1.958-4.423-3.752-.728-1.309-.933-2.604-.595-3.746.381-1.281 1.634-3.572 3.501-6.922.834-1.496 1.623-2.91 2.111-3.891 1.169-2.35.912-5.761.388-6.76-1.287-2.447-1.587-13.249.852-16.065l2.85 2.469-1.425-1.234 1.427 1.232c-1.096 1.346-1.183 10.16-.363 11.848 1.145 2.18 1.282 6.903-.353 10.19-.528 1.061-1.336 2.511-2.192 4.046-1.219 2.187-2.889 5.182-3.179 6.16-.13.581 1.265 2.477 2.397 2.787 3.155.862 4 5.059 4.895 9.502.486 2.409.988 4.902 1.785 6.307.161.28.479.665 1.401.746 2.68.248 7.905-2.373 12.314-7.679 1.911-2.3 3.816-1.702 4.543-1.337 4.718 2.354 5.619 17.396 3.687 25.598-1.782 7.543-5.387 9.128-8.099 9.13"></path><path d="M79.296 22.369c3.519 7.49 2.099 21.081 1.579 35.372-.312 8.574-.493 17.748-.722 24.314-.116 3.34 1.06 6.602 1.189 8.771.747 12.452-27.174-6.643-29.374-15.44-2.2-8.802-.968-20.73-2.38-26.231-1.415-5.5 6.755-27.342 6.755-27.342l22.953.556z"></path><path d="M76.756 17.517C66.699 3.27 53.359 3.217 44.349 7.722c0 0-18.922.514-20.217 5.448-3.424 13.047-.524 33.892 37.538 39.757l13.62 1.257s11.522-22.42 1.466-36.667zm-34.571 8.832s-4.214-10.304-4.221-14.754c0 0-2.783 1.381-4.834 4.622 0 0-.453-1.955-.166-3.363 0 0-4.535.572-6.298 2.402 0 0 .255-2.037 2.691-3.237 2.438-1.2 10.04-3.201 12.907-2.877 2.239.252-1.312 10.989-.079 17.207zM53.703 8.786s2.584 2.033 4.606 7.676c0 0-5.055-5.479-8.483-6.36l-3.318-.567s7.12-4.106 11.199-2.767c1.326.435 11.629 4.782 14.212 13.719 0 0-11.299-10.644-18.216-11.701z"></path></g><!----></svg>